<?xml version="1.0" encoding="UTF-8"?>
<!-- Generator: Adobe Illustrator 28.2.0, SVG Export Plug-In . SVG Version: 6.00 Build 0)  -->
<svg xmlns="http://www.w3.org/2000/svg" xmlns:xlink="http://www.w3.org/1999/xlink" version="1.1" x="0px" y="0px" viewBox="0 0 64 64" style="enable-background:new 0 0 64 64;" xml:space="preserve">
<style type="text/css">
	.st0{fill:#FFFFFF;}
	.st1{display:none;}
	.st2{display:inline;fill:none;stroke:#00D46B;stroke-width:2.9516;stroke-linecap:round;stroke-miterlimit:10;}
</style>
<g id="Layer_1">
	<path class="st0" d="M32,4.9 M64,32.9c0,0.5-0.4,0.8-0.8,0.8H49.4c-0.1,4.6-2.2,9-5.5,12c-1,1.3-3.2,0.3-2.7-1.3   c0.1-0.5,0.4-0.8,0.7-1.1c1-0.9,1.9-1.9,2.6-3.1c1.2-1.8,1.9-4,2.2-6.2c-1,0.1-1.9,0.1-2.8,0.3c-1.5,0.3-3.1,0.6-4.5,1.1   c-2.7,0.9-4.4,2.9-5.2,5.7c-0.7,2.3-1,4.7-1.1,7.1c0,0,0,0.1,0,0.1c-0.1,0-0.1,0-0.2,0v14.8c0,0.4-0.4,0.8-0.8,0.8   c-0.4,0-0.8-0.4-0.8-0.8V48.3c0,0-0.1,0-0.2,0c0,0,0-0.1,0-0.1c-0.2-2.4-0.4-4.8-1.1-7.1c-0.8-2.7-2.5-4.7-5.2-5.7   c-1.5-0.5-3-0.8-4.5-1.1c-0.9-0.2-1.8-0.2-2.7-0.3c0.4,3.1,1.7,6,3.7,8.3l0,0.1c0.6,0.7-0.1,1.9-1,2c-0.3,0-0.4-0.1-0.6-0.3   C19,43.5,18.5,42.8,18,42c-1.5-2.4-2.3-5.3-2.3-8.2H0.8c-0.4,0-0.8-0.4-0.8-0.8c0-0.4,0.4-0.8,0.8-0.8h14.9   c0.2-2.4,0.8-4.7,1.9-6.8c0.4-0.8,1.3-0.8,1.2,0.2c-0.1,0.3-0.2,0.5-0.3,0.8c-0.8,1.7-1.2,3.6-1.2,5.5c1-0.1,1.9-0.1,2.9-0.3   c1.5-0.3,3.1-0.6,4.5-1.1c2.7-0.9,4.4-2.9,5.2-5.7c0.7-2.3,1-4.7,1.1-7.1c0,0,0-0.1,0-0.1c0.1,0,0.1,0,0.2,0v0   c-1.5,0.1-2.9,0.4-4.3,0.9c-0.3,0.1-0.5,0.2-0.8,0.2c-0.7,0-0.6-0.7,0-1c1.7-0.7,3.4-1.1,5.1-1.2V0.8C31.2,0.4,31.6,0,32,0   c0.5,0,0.8,0.4,0.8,0.8v15.6c8.3,0.3,16.1,6.9,16.6,15.7l0,0.1h13.8C63.6,32.1,64,32.5,64,32.9z M32.8,17.5L32.8,17.5   c0,0,0.1,0,0.2,0c0,0,0,0.1,0,0.1c0.2,2.4,0.4,4.8,1.1,7.1c0.8,2.7,2.5,4.7,5.2,5.7c1.5,0.5,3,0.8,4.5,1.1c0.9,0.2,1.9,0.2,2.9,0.3   c0,0.1,0,0.2,0,0.3h0c0-1.5-0.3-3-0.7-4.4C44.4,21.9,38.8,18,32.8,17.5z M4.9,15.3L11,27.3l6.7-8L4.9,15.3z M40.8,55.7l9.9,4.5   l-1.8-11.8L40.8,55.7z M22.8,9.5L16.7,4l-2,6.9L22.8,9.5z M55.6,41.2l-1.4,7.7l4.8-0.7L55.6,41.2z M50.7,18.6l2.5,8.1l6-7.1   L50.7,18.6z M40.5,10.3l12.2,2.7l-1.3-8.9L40.5,10.3z M10.2,43.7L7,51.2l9.8-3L10.2,43.7z M23.4,60.3l0-7.7l-6,2.9L23.4,60.3z"></path>
</g>
<g id="Layer_2" class="st1">
	<line class="st2" x1="60.2" y1="-36.9" x2="60.2" y2="75.7"></line>
	<polyline class="st2" points="116.5,21.1 60.2,21.1 32.5,21.1 3.9,21.1  "></polyline>
</g>
</svg>
