<?xml version="1.0" encoding="utf-8"?>
<!-- Generator: Adobe Illustrator 19.2.1, SVG Export Plug-In . SVG Version: 6.00 Build 0)  -->
<svg version="1.1" id="Layer_1" xmlns="http://www.w3.org/2000/svg" xmlns:xlink="http://www.w3.org/1999/xlink" x="0px" y="0px"
	 viewBox="0 0 32 32" style="enable-background:new 0 0 32 32;" xml:space="preserve">
<style type="text/css">
	.st0{fill:#FFFFFF;}
</style>
<path class="st0" d="M13.7,17c0.4,1.3,0.8,2.7,1.2,4c0.9-1,1.8-2.2,2.6-3.2C16.3,17.6,15,17.3,13.7,17z"/>
<g>
	<path class="st0" d="M8.5,0H8.3C2.9,0.8,0.1,6.1,0,6.3l0.5,0.7c4-0.3,9.2,1.3,11.8,2.3c0.3-0.3,0.5-0.5,0.8-0.8
		c1.2-1,2.7-1.9,4.3-2.5C17.7,6,18,5.9,18.3,5.8c0.4-0.1,0.7-0.2,1.1-0.3C15.3,1.5,8.8,0.1,8.5,0z M8.4,1c0.4,0.1,1.9,0.5,3.8,1.2
		c-0.3,0.1-0.6,0.3-1,0.5c-0.7-0.3-2.4-1-4.3-1.4C7.4,1.2,7.9,1.1,8.4,1z M5.2,2.2C7,2.2,9,2.9,10.1,3.4C9.9,3.5,9.7,3.7,9.4,3.8
		c-0.5-0.2-2.6-0.9-5.1-1C4.6,2.6,4.9,2.4,5.2,2.2z M3.2,3.8c2.3-0.2,4.3,0.4,5.3,0.7C8.3,4.7,8,5,7.8,5.2C7.1,5,5.4,4.4,2.6,4.4
		C2.8,4.2,3,4,3.2,3.8z M6.5,6.6C4.8,6.3,3.1,6,1.4,6c0.1-0.2,0.3-0.4,0.4-0.6C4.4,5.3,6.2,5.7,7,6C6.9,6.2,6.7,6.4,6.5,6.6z
		 M8.7,7.3C8.4,7.3,8,7.2,7.7,7.1c1.7-2.3,4.3-3.8,5.7-4.5c0.4,0.2,0.8,0.3,1.3,0.5C13.8,3.5,10.7,4.9,8.7,7.3z"/>
	<path class="st0" d="M29.2,7.6c-2.7-1.9-7.5-2.2-11.5-0.7c-4.2,1.6-7,4.7-8,8.9c-0.7,3-2.1,5.1-4,6.2c-2.5,1.4-5.1,0.6-5.1,0.6
		L0,23.4c0,0,6.6,8.6,15.8,8.6c0.1,0,0.3,0,0.3,0c1.5,0,3-0.2,4.7-0.7l0.3-0.3c0.1-0.2,0.9-4.1,0.9-8.9c0-2.6-0.1-4.5,0.1-5.4
		c0,0,0,0,0,0c0.5-3,3.1-5.3,6.2-5.3c0.2,0,0.5,0,0.7,0c0.3,0,0.5,0.3,0.4,0.6c0,0.3-0.3,0.5-0.6,0.4c-0.2,0-0.4,0-0.6,0
		c-2.8,0-5.1,2.2-5.2,5c0.9,0.6,2,0.9,3.2,0.9c3.2,0,5.8-2.6,5.8-5.8C32,10.6,31,8.9,29.2,7.6z M13.7,17L13.7,17
		c0.9-1,1.7-2.1,2.6-3.1c0.4,1.3,0.8,2.6,1.2,3.8l0,0c0.4,1.2,0.8,2.4,1.2,3.5c-1.2,0.1-2.5,0-3.8-0.3l0,0c-1.3-0.3-2.6-0.8-3.8-1.3
		C12,18.9,12.9,18,13.7,17z M9,20c4.8,3.5,10,3.4,12,3.2c0,0.3,0,0.7,0,1c-0.5,0-1.1,0.1-1.8,0.1c-2.7,0-6.8-0.6-10.8-3.4
		C8.7,20.6,8.9,20.3,9,20z M1.7,23.8c1.1,0.1,2.8,0,4.5-1c0.6-0.4,1.2-0.8,1.7-1.3c0.2,0.1,0.4,0.3,0.5,0.4
		c-0.5,0.7-1.9,2.5-5.3,3.3C2.6,24.7,2.1,24.2,1.7,23.8z M4,26c3.2-0.9,4.7-2.7,5.2-3.5c0.2,0.1,0.5,0.3,0.7,0.4
		c-0.5,0.9-2.1,3.1-4.5,4.2C4.9,26.7,4.5,26.4,4,26z M7.8,28.6c-0.5-0.3-1-0.6-1.5-0.9c2.5-1.2,4-3.5,4.5-4.4
		c0.2,0.1,0.5,0.2,0.7,0.3C11.1,24.5,10,26.8,7.8,28.6z M10.2,29.8c-0.5-0.2-1-0.4-1.5-0.7c2.2-2,3.3-4.2,3.7-5.1
		c0.3,0.1,0.6,0.2,0.9,0.3C13,25.3,11.9,28.1,10.2,29.8z M12.9,30.6c-0.6-0.1-1.2-0.3-1.8-0.5c1.7-1.9,2.7-4.6,3-5.6
		c0.3,0.1,0.6,0.1,0.9,0.2C14.9,25.6,14.4,28.3,12.9,30.6z M15.6,31c-0.5,0-1.1-0.1-1.6-0.1c1.4-2.4,1.9-5.1,2.1-5.9
		c0.3,0,0.6,0.1,0.9,0.1C16.9,26.1,16.6,28.8,15.6,31z M18.1,30.9c-0.5,0.1-0.9,0.1-1.4,0.1c0.9-2.3,1.2-4.8,1.3-5.8
		c0.3,0,0.6,0,0.8,0c0.1,0,0.2,0,0.3,0C19,26.1,18.8,28.2,18.1,30.9z M20.2,30.4c-0.4,0.1-0.7,0.2-1.1,0.3c0.7-2.6,0.9-4.7,0.9-5.6
		c0.4,0,0.7-0.1,0.9-0.1C20.9,27.6,20.4,29.7,20.2,30.4z"/>
</g>
</svg>
