<?xml version="1.0" encoding="utf-8"?>
<!-- Generator: Adobe Illustrator 19.2.1, SVG Export Plug-In . SVG Version: 6.00 Build 0)  -->
<svg version="1.1" id="Layer_1" xmlns="http://www.w3.org/2000/svg" xmlns:xlink="http://www.w3.org/1999/xlink" x="0px" y="0px"
	 viewBox="0 0 32 32" style="enable-background:new 0 0 32 32;" xml:space="preserve">
<style type="text/css">
	.st0{fill:#FFFFFF;}
	.st1{fill-rule:evenodd;clip-rule:evenodd;fill:#FFFFFF;}
</style>
<g>
	<path class="st0" d="M7,4v19c0,1,0.555,1,1,1c3.607,0,6.218,1.109,8,2.331C17.782,25.109,20.393,24,24,24c0.5,0,0.971,0,1-1V4H7z
		 M15,14H9V6h6V14z"/>
</g>
<g>
	<path class="st0" d="M16,0H1v2c0,0,2-0.37,2,5c0,5.371,0,16,0,16s0,5,5,5c5.985,0,8,4,8,4s2.014-4,8-4c4.958,0,5-5,5-5
		s0-10.629,0-16c0-5.37,2-5,2-5V0H16z M27,6.926v16.139c0,0.886-0.337,3.026-2.986,3.026c-3.977,0-6.505,1.516-8.014,2.902
		c-1.51-1.387-4.038-2.902-8.014-2.902C5.114,26.092,5,23.571,5,23.066V6.926C5,4.531,4.548,3,4,2h24C27.452,3,27,4.531,27,6.926z"
		/>
</g>
</svg>
