<?xml version="1.0" encoding="utf-8"?>
<!-- Generator: Adobe Illustrator 19.2.1, SVG Export Plug-In . SVG Version: 6.00 Build 0)  -->
<svg version="1.1" id="Layer_1" xmlns="http://www.w3.org/2000/svg" xmlns:xlink="http://www.w3.org/1999/xlink" x="0px" y="0px"
	 viewBox="0 0 32 32" style="enable-background:new 0 0 32 32;" xml:space="preserve">
<style type="text/css">
	.st0{fill:#FFFFFF;}
	.st1{fill-rule:evenodd;clip-rule:evenodd;fill:#FFFFFF;}
</style>
<g id="XMLID_24_">
	<ellipse transform="matrix(0.707 -0.7072 0.7072 0.707 3.324 16.0234)" class="st0" cx="21" cy="4" rx="1" ry="1"/>
</g>
<g id="XMLID_23_">
	<ellipse transform="matrix(0.7072 -0.707 0.707 0.7072 0.4217 23.0183)" class="st0" cx="28" cy="11" rx="1" ry="1"/>
</g>
<g id="XMLID_22_">
	<ellipse transform="matrix(0.7072 -0.7071 0.7071 0.7072 -1.7849 22.6902)" class="st0" cx="26.5" cy="13.5" rx="0.5" ry="0.5"/>
</g>
<g id="XMLID_21_">
	<ellipse transform="matrix(0.7071 -0.7071 0.7071 0.7071 1.5294 14.6924)" class="st0" cx="18.5" cy="5.5" rx="0.5" ry="0.5"/>
</g>
<g id="XMLID_18_">
	
		<ellipse transform="matrix(0.7072 -0.707 0.707 0.7072 7.9885 20.2957)" class="st0" cx="28.496" cy="0.504" rx="0.504" ry="0.504"/>
</g>
<g>
	<circle class="st0" cx="28.5" cy="0.5" r="0.5"/>
</g>
<g>
	<circle class="st0" cx="31.5" cy="0.5" r="0.5"/>
</g>
<g>
	<circle class="st0" cx="31.5" cy="3.5" r="0.5"/>
</g>
<g>
	<g>
		<path class="st0" d="M31.5,1.5c-0.551,0-1-0.449-1-1c0-0.186,0.065-0.351,0.154-0.5h-1.307C29.435,0.149,29.5,0.314,29.5,0.5
			c0,0.551-0.449,1-1,1c-0.186,0-0.351-0.065-0.5-0.154V2c0,0-4.988,4-5,5c0,0-0.427-0.464-0.967-1.916
			C21.752,5.351,21.388,5.5,21,5.5c-0.4,0-0.777-0.156-1.061-0.439c-0.188-0.188-0.314-0.42-0.382-0.67
			c-0.476-0.631-0.859-0.342-1.228,0.143C18.387,4.524,18.441,4.5,18.5,4.5c0.267,0,0.518,0.104,0.707,0.293
			c0.39,0.39,0.39,1.024,0,1.414c-0.041,0.041-0.094,0.061-0.14,0.094c0.13,0.109,0.393,0.204,0.794,0.241
			c0.672,0.061,1.404,0.346,1.811,1.078C22.079,8.352,20.461,9.444,19,9c0,0-0.924,2.924-16,18c0,0-2.195,2.14-3,4.981L0.019,32
			C2.86,31.195,5,29,5,29c15.077-15.076,18-16,18-16c-0.444-1.461,0.648-3.079,1.38-2.672c0.732,0.407,1.017,1.14,1.078,1.811
			c0.037,0.403,0.133,0.663,0.243,0.792c0.032-0.045,0.051-0.097,0.091-0.138c0.189-0.189,0.44-0.293,0.707-0.293
			s0.518,0.104,0.707,0.293c0.241,0.241,0.315,0.572,0.258,0.884c0.498-0.373,0.781-0.754,0.145-1.235
			c-0.25-0.067-0.482-0.193-0.67-0.382c-0.576-0.577-0.578-1.506-0.02-2.092C25.462,9.427,25,9,25,9c0.976-0.012,5-5,5-5h0.654
			C30.565,3.851,30.5,3.686,30.5,3.5c0-0.551,0.449-1,1-1c0.186,0,0.351,0.065,0.5,0.154V1.346C31.851,1.435,31.686,1.5,31.5,1.5z"
			/>
	</g>
</g>
</svg>
