<?xml version="1.0" encoding="utf-8"?>
<!-- Generator: Adobe Illustrator 19.2.1, SVG Export Plug-In . SVG Version: 6.00 Build 0)  -->
<svg version="1.1" id="Layer_1" xmlns="http://www.w3.org/2000/svg" xmlns:xlink="http://www.w3.org/1999/xlink" x="0px" y="0px"
	 viewBox="0 0 32 32" style="enable-background:new 0 0 32 32;" xml:space="preserve">
<style type="text/css">
	.st0{fill:#FFFFFF;}
	.st1{fill-rule:evenodd;clip-rule:evenodd;fill:#FFFFFF;}
</style>
<g>
	<path class="st0" d="M30,17.407c0-0.272-0.035-0.536-0.108-0.799c-0.499-1.79-2.646-9.346-4.847-14.871
		c-0.103-0.258-0.31-0.449-0.567-0.553C23.81,0.914,22.688,0.353,22,0.073c-0.262-0.107-0.747-0.096-1,0.029l-1.264,0.49
		C19.399,0.758,19,1.124,19,1.5v1.676c0,0.396,0.417,0.753,0.781,0.909L22,5.311L23,5c0,0,0.999,4.669,1,8.992
		C24,14.547,23.555,15,23,15l-7,0l-7,0c-0.555,0-1-0.453-1-1.008C8.001,9.669,9,5,9,5l1,0.311l2.219-1.226
		C12.583,3.93,13,3.572,13,3.176V1.5c0-0.376-0.399-0.742-0.736-0.908L11,0.102c-0.253-0.125-0.738-0.135-1-0.029
		c-0.688,0.28-1.81,0.841-2.477,1.111C7.265,1.288,7.058,1.48,6.955,1.737C4.754,7.262,2.607,14.819,2.108,16.609
		C2.035,16.871,2,17.135,2,17.407V23l4,1l0.293-0.293C6.488,23.512,6.744,23.414,7,23.414V23c0,0-0.07-1,1-1s2,0,2,0
		c0.552,0,1,0.448,1,1v1.219c0,0.459,0.312,0.859,0.757,0.97l0.485,0.121C12.688,25.422,13,25.822,13,26.281v0.072
		c0,0.394,0.231,0.751,0.591,0.912l1.414,0.634c0.161,0.072,0.3,0.186,0.403,0.329L18.113,32l3.622-1.488
		C22.5,30.197,23,29.451,23,28.623v-2.795c0-0.53,0.211-1.039,0.586-1.414l0.707-0.707c0.391-0.391,1.024-0.391,1.414,0L26,24l4-1
		L30,17.407z M21.918,22.726c-0.027,0.052-0.264,0.526-0.143,1.129c0.061,0.304,0.324,1.881-0.547,2.988
		c-0.736,0.936-2.06,1.265-3.916,0.967l-0.02-0.004c-0.001-0.001-0.082-0.021-0.2-0.021c-0.109,0-0.271,0.018-0.425,0.103
		C16.532,27.963,16.419,28,16.322,28c-0.128,0-0.236-0.066-0.288-0.176c-0.08-0.168-0.019-0.387,0.189-0.669
		c0.11-0.15,0.082-0.41,0.062-0.496l-0.005-0.027c-0.012-0.096-0.285-2.38,0.841-3.705c0.666-0.783,2.053-1.103,3.547-0.688
		L20.7,22.25c0,0,0.056,0.023,0.15,0.023c0.138,0,0.282-0.047,0.429-0.14C21.423,22.042,21.541,22,21.649,22
		c0.127,0,0.235,0.061,0.296,0.169C22.055,22.36,21.975,22.617,21.918,22.726z"/>
</g>
<g>
	<path class="st0" d="M11,30c0-0.552,0.448-1,1-1h2l0-0.611l-1.406-0.625C12.233,27.603,12,27.245,12,26.85
		c0,0,0.027-0.593-0.513-0.728c-0.54-0.135-0.73-0.182-0.73-0.182C10.312,25.828,10,25.428,10,24.969V24c0-0.552-0.448-1-1-1
		c0,0-1-0.039-1,1s1,1.22,1,1.75V29c0,0.809,0.487,1.373,1.234,1.683L11,31V30z"/>
</g>
<g>
	<circle class="st0" cx="19" cy="25" r="1.5"/>
</g>
</svg>
