<?xml version="1.0" encoding="utf-8"?>
<!-- Generator: Adobe Illustrator 25.0.0, SVG Export Plug-In . SVG Version: 6.00 Build 0)  -->
<svg version="1.1" id="Calamity_Ganon" xmlns="http://www.w3.org/2000/svg" xmlns:xlink="http://www.w3.org/1999/xlink" x="0px"
	 y="0px" viewBox="0 0 32 32" style="enable-background:new 0 0 32 32;" xml:space="preserve">
<style type="text/css">
	.st0{fill:#FFFFFF;}
</style>
<path class="st0" d="M26.5,14.5c-0.55,0-1-0.9-1-2c0-0.13,0.01-0.26,0.02-0.38C25.21,11.75,25,11.17,25,10.5c0-1.1,0.56-2,1.25-2
	c0.13,0,0.24,0.04,0.36,0.09c-0.89-2.58-2.4-4.77-4.3-6.29c0.12,0.36,0.19,0.76,0.19,1.2C22.5,4.88,21.83,6,21,6s-1.5-1.12-1.5-2.5
	C21.67,3.52,19.5,0,16,0c0.88,0.27,2,1.32,2,2.5C18,3.88,17.1,5,16,5s-2-1.12-2-2.5c0-0.31,0.05-0.61,0.13-0.88
	C12.04,2.05,10.15,3.3,8.7,5.14C8.99,5,9.27,4.96,9.5,5.05c0.62,0.24,0.67,1.31,0.12,2.39C9.07,8.51,8.12,9.19,7.5,8.95
	C7.2,8.83,7.03,8.51,7,8.08C6.78,8.63,6.59,9.2,6.43,9.79c-0.09,0.34-0.39,0.56-0.72,0.56c-0.06,0-0.13-0.01-0.19-0.03
	c-0.24-0.06-0.42-0.25-0.5-0.47C4.68,11.16,4.5,12.56,4.5,14c0,1.06,0.12,2.09,0.31,3.08c0.11-0.53,0.37-0.94,0.75-1.05
	c0.64-0.19,1.37,0.53,1.61,1.62c0.25,1.09-0.08,2.13-0.72,2.32c-0.32,0.1-0.66-0.04-0.95-0.32c0.17,0.46,0.35,0.92,0.56,1.36
	c1.65,0.01,3.13,0.7,4.21,1.79c0.32-0.68,0.73-1.29,1.23-1.8c-0.22,0.65-0.28,1.32-0.28,1.96c0.17-0.14,0.36-0.26,0.56-0.35
	l1.44-0.96c0.82-0.55,1.78-0.84,2.77-0.84s1.95,0.29,2.78,0.84l1.44,0.96c0.2,0.09,0.39,0.21,0.56,0.35c0-0.65-0.06-1.31-0.28-1.96
	c0.5,0.51,0.91,1.12,1.24,1.79c0.87-0.88,2-1.49,3.26-1.7c0-0.03,0-0.06,0-0.09c0-1.1,0.45-2,1-2c0.23,0,0.43,0.16,0.6,0.41
	c0.58-1.66,0.9-3.49,0.9-5.41c0-0.33-0.02-0.65-0.04-0.97C27.34,13.88,26.96,14.5,26.5,14.5z M15.23,11.01
	c0.18-0.82,0.38-1.64,0.67-2.46c0.01-0.04,0.07-0.06,0.12-0.05c0.04,0.01,0.06,0.03,0.07,0.05c0.29,0.82,0.49,1.64,0.67,2.46
	c0.08,0.41,0.33,0.82,0.19,1.23c-0.13,0.41-0.33,0.82-0.86,1.23c-0.05,0.04-0.13,0.04-0.19,0l0,0c-0.53-0.41-0.73-0.82-0.86-1.23
	C14.9,11.83,15.15,11.42,15.23,11.01z M11,17.5c-0.83,0-1.5-0.67-1.5-1.5s0.67-1.5,1.5-1.5s1.5,0.67,1.5,1.5S11.83,17.5,11,17.5z
	 M13.62,11.11c-0.05,0.41,0.05,0.85-0.14,1.23c-0.18,0.38-0.4,0.76-0.86,1.14l0,0c-0.05,0.03-0.11,0.03-0.15-0.02
	c-0.36-0.47-0.45-0.93-0.47-1.39s0.27-0.85,0.46-1.26c0.38-0.81,0.83-1.59,1.41-2.29c0.02-0.02,0.05-0.03,0.07-0.03
	C13.98,8.5,14.01,8.53,14,8.58C13.85,9.45,13.7,10.28,13.62,11.11z M17.96,19.25c-0.63-0.25-1.3-0.36-1.96-0.34
	c-0.66-0.02-1.32,0.09-1.96,0.34c-0.01-0.04-0.03-0.07-0.04-0.11c0.17-0.52,0.48-0.84,0.84-1.06c0.35-0.23,0.76-0.32,1.16-0.33
	c0.4,0.02,0.81,0.1,1.16,0.34c0.35,0.22,0.67,0.54,0.84,1.06C17.99,19.18,17.97,19.21,17.96,19.25z M17.96,17.25
	c-0.63-0.25-1.3-0.36-1.96-0.34c-0.66-0.02-1.32,0.09-1.96,0.34c-0.01-0.04-0.03-0.07-0.04-0.11c0.17-0.52,0.48-0.84,0.84-1.06
	c0.35-0.23,0.76-0.32,1.16-0.33c0.4,0.02,0.81,0.1,1.16,0.34c0.35,0.22,0.67,0.54,0.84,1.06C17.99,17.18,17.97,17.21,17.96,17.25z
	 M19.39,13.48C19.38,13.48,19.38,13.48,19.39,13.48c-0.46-0.38-0.68-0.76-0.86-1.14c-0.19-0.38-0.09-0.81-0.14-1.23
	C18.3,10.28,18.15,9.45,18,8.59c-0.01-0.04,0.02-0.08,0.06-0.09c0.03,0,0.06,0.01,0.07,0.03c0.58,0.7,1.03,1.47,1.41,2.29
	c0.18,0.41,0.48,0.8,0.46,1.26c-0.01,0.45-0.1,0.92-0.47,1.39C19.5,13.51,19.43,13.51,19.39,13.48z M21,17.5
	c-0.83,0-1.5-0.67-1.5-1.5s0.67-1.5,1.5-1.5s1.5,0.67,1.5,1.5S21.83,17.5,21,17.5z M11,27c0,2.76-2.24,5-5,5
	c-2.32,0-4.25-1.59-4.82-3.73C0.44,26.28,0,23.06,0,17.93C0,12.11,3.21,6.54,6.56,4C4.66,6.63,3.5,10.25,3.5,14
	c0,2.97,0.74,5.72,1.99,8.05c0.01,0,1.08,1.92,2.27,3.09c-0.59-1-1.04-2.04-1.38-3.11C8.96,22.23,11,24.37,11,27z M25.63,22.04
	c-0.35,1.06-0.8,2.11-1.38,3.11c1.19-1.17,2.26-3.09,2.27-3.09c1.25-2.33,1.99-5.08,1.99-8.05c0-3.75-1.16-7.37-3.06-10
	C28.79,6.54,32,12.11,32,17.93c0,5.13-0.44,8.35-1.18,10.34C30.25,30.41,28.32,32,26,32c-2.76,0-5-2.24-5-5
	C21,24.37,23.04,22.23,25.63,22.04z M20.67,24.26c-0.22-0.34-0.54-0.61-0.93-0.76l-1.52-1.02c-1.34-0.9-3.1-0.9-4.44,0l-1.52,1.02
	c-0.39,0.16-0.71,0.43-0.93,0.76C11.76,25.08,12,26.01,12,27c0,0.77-0.15,1.51-0.42,2.19c0.13,0.13,0.28,0.24,0.45,0.32
	c0.6,0.3,1.31,0.26,1.87-0.12l0.43-0.29c1.01-0.67,2.32-0.67,3.33,0l0.43,0.29c0.56,0.37,1.27,0.42,1.87,0.12
	c0.17-0.08,0.32-0.2,0.45-0.32C20.15,28.51,20,27.77,20,27C20,26.01,20.24,25.08,20.67,24.26z M15.25,26.2
	c0,0.58-0.5,1.05-1.12,1.05h-0.26c-0.87,0-1.41-0.89-0.96-1.58l0.26-0.41c0.58-0.91,2.08-0.52,2.08,0.54V26.2z M18.13,27.25h-0.26
	c-0.62,0-1.12-0.47-1.12-1.05v-0.4c0-1.06,1.49-1.45,2.08-0.54l0.26,0.41C19.54,26.36,19,27.25,18.13,27.25z"/>
</svg>
