<?xml version="1.0" encoding="utf-8"?>
<!-- Generator: Adobe Illustrator 19.1.0, SVG Export Plug-In . SVG Version: 6.00 Build 0)  -->
<svg version="1.1" id="Layer_1" xmlns="http://www.w3.org/2000/svg" xmlns:xlink="http://www.w3.org/1999/xlink" x="0px" y="0px"
	 viewBox="-289 381 32 32" style="enable-background:new -289 381 32 32;" xml:space="preserve">
<style type="text/css">
	.st0{fill:#FFFFFF;}
</style>
<g>
	<path class="st0" d="M-272.1,406.9l1-0.1l-0.3,2.1L-272.1,406.9z M-268.3,406l0.3,2.1l-1.2-1.7L-268.3,406z M-265.6,406.4l-1.6-1.3
		l0.8-0.6L-265.6,406.4z M-267.4,402.5c-0.5,0.5-1,0.9-1.5,1.3c0.2,0.3,0.4,0.6,0.7,0.9c-0.1,0-0.2,0.1-0.2,0.1
		c-0.2-0.3-0.4-0.7-0.5-1c-0.6,0.3-1.2,0.6-1.8,0.8c0.1,0.3,0.2,0.7,0.4,1c-0.1,0-0.2,0-0.2,0c-0.1-0.3-0.2-0.7-0.2-1
		c-0.7,0.1-1.3,0.2-2,0.3c0,0.3,0,0.7,0.1,1c0,0-0.1,0-0.1,0c-0.1,0-0.1,0-0.2,0c0-0.3,0-0.7,0.1-1c-0.7,0-1.3-0.1-2-0.3
		c-0.1,0.3-0.1,0.6-0.2,0.9c-0.1,0-0.2,0-0.2-0.1c0.1-0.3,0.2-0.6,0.3-0.9c-0.6-0.2-1.2-0.5-1.8-0.8c-0.1,0.3-0.3,0.5-0.4,0.8
		c-0.1,0-0.1-0.1-0.2-0.1c0.2-0.3,0.4-0.5,0.5-0.8c-0.5-0.4-1.1-0.8-1.5-1.3l-4.4,4.5c1.8,3.6,5.7,5.9,10,6c4.4,0.1,8.2-2.4,10-6
		L-267.4,402.5z M-274.7,408.8l-0.2-2.1l1,0.1L-274.7,408.8z M-276.5,406.4l-1.3,1.6l0.4-2L-276.5,406.4z M-279.5,404.5l0.8,0.6
		l-1.7,1.2L-279.5,404.5z"/>
</g>
<g>
	<polygon class="st0" points="-273,381 -274,387 -273,389 -272,387 	"/>
</g>
<g>
	<polygon class="st0" points="-280.8,384 -277.3,388.9 -275.2,389.6 -275.9,387.5 	"/>
</g>
<g>
	<polygon class="st0" points="-265.2,384 -268.7,388.9 -270.8,389.6 -270.1,387.5 	"/>
</g>
<g>
	<path class="st0" d="M-273,390c-1.1,0-2,0.9-2,2s0.9,2,2,2s2-0.9,2-2S-271.9,390-273,390z M-273,393c-0.6,0-1-0.4-1-1s0.4-1,1-1
		s1,0.4,1,1S-272.4,393-273,393z"/>
</g>
<g>
	<path class="st0" d="M-270.1,391.4c0,0.2,0.1,0.4,0.1,0.6c0,0.2,0,0.3,0,0.5c2,0.7,3.6,2.1,4.4,3.8c-1.3,0.2-2.6,0.4-3.9,0.6
		c0-0.2-0.2-0.4-0.5-0.4c-0.3,0-0.5,0.2-0.5,0.5h-5c0-0.3-0.2-0.5-0.5-0.5c-0.2,0-0.4,0.2-0.5,0.4c-1.3-0.2-2.6-0.4-3.9-0.6
		c0.8-1.7,2.4-3.1,4.4-3.8c0-0.2-0.1-0.3-0.1-0.5c0-0.2,0-0.4,0.1-0.6c-4.6,1.3-8.1,5.5-8.1,10.6c0,1.4,0.3,2.7,0.7,3.9l3.3-3.4
		c-0.7-1-1-2.2-1-3.5c0-0.1,0-0.1,0-0.2c1.5-0.2,3-0.5,4.5-0.7c0,0.2,0.2,0.4,0.5,0.4c0.3,0,0.5-0.2,0.5-0.5h5
		c0,0.3,0.2,0.5,0.5,0.5c0.2,0,0.4-0.2,0.5-0.4c1.5,0.2,3,0.5,4.5,0.7c0,0.1,0,0.1,0,0.2c0,1.3-0.4,2.4-1.1,3.5l3.3,3.4
		c0.5-1.2,0.7-2.5,0.7-3.9C-262,396.9-265.4,392.7-270.1,391.4z M-279.5,398c-0.3,0-0.5-0.2-0.5-0.5s0.2-0.5,0.5-0.5
		s0.5,0.2,0.5,0.5S-279.2,398-279.5,398z M-266.5,398c-0.3,0-0.5-0.2-0.5-0.5s0.2-0.5,0.5-0.5s0.5,0.2,0.5,0.5S-266.2,398-266.5,398
		z"/>
</g>
</svg>
