<?xml version="1.0" encoding="utf-8"?>
<!-- Generator: Adobe Illustrator 19.2.1, SVG Export Plug-In . SVG Version: 6.00 Build 0)  -->
<svg version="1.1" id="Layer_1" xmlns="http://www.w3.org/2000/svg" xmlns:xlink="http://www.w3.org/1999/xlink" x="0px" y="0px"
	 viewBox="0 0 32 32" style="enable-background:new 0 0 32 32;" xml:space="preserve">
<style type="text/css">
	.st0{fill:#FFFFFF;}
	.st1{fill-rule:evenodd;clip-rule:evenodd;fill:#FFFFFF;}
</style>
<g id="XMLID_203_">
	<polygon class="st0" points="12,12 20,12 16,19 	"/>
</g>
<g>
	<path class="st0" d="M16,0C7.164,0,0,7.164,0,16c0,8.836,7.164,16,16,16C24.837,32,32,24.836,32,16C32,7.164,24.837,0,16,0z M16,30
		C8.28,30,2,23.72,2,16S8.28,2,16,2c7.72,0,14,6.28,14,14S23.72,30,16,30z"/>
</g>
<g>
	<path class="st0" d="M27.185,9.408l-5.377,2.689C22.56,13.212,23,14.556,23,16c0,3.1-2.027,5.731-4.824,6.649L19,21h-6l0.828,1.651
		C11.029,21.735,9,19.101,9,16c0-1.444,0.44-2.788,1.193-3.904L4.815,9.408C3.67,11.343,3,13.592,3,16
		c0,0.006,0.001,0.012,0.001,0.018c0.751-0.244,1.502-0.488,2.252-0.732c0.085,2.719,0.943,5.358,2.472,7.608
		c-0.745,0.242-1.49,0.484-2.235,0.726c1.601,2.202,3.867,3.886,6.51,4.743c0-0.788,0-1.576,0-2.364c2.613,0.759,5.387,0.759,8,0
		c0,0.788,0,1.576,0,2.364c2.642-0.857,4.908-2.542,6.509-4.743c-0.745-0.242-1.49-0.484-2.235-0.726
		c1.529-2.25,2.387-4.889,2.473-7.608C27.498,15.53,28,15.774,29,16.018c0-0.006,0-0.012,0-0.018
		C29,13.592,28.33,11.343,27.185,9.408z"/>
</g>
</svg>
