<?xml version="1.0" encoding="utf-8"?>
<!-- Generator: Adobe Illustrator 23.0.3, SVG Export Plug-In . SVG Version: 6.00 Build 0)  -->
<svg version="1.1" id="Layer_1" xmlns="http://www.w3.org/2000/svg" xmlns:xlink="http://www.w3.org/1999/xlink" x="0px" y="0px"
	 viewBox="0 0 32 32" style="enable-background:new 0 0 32 32;" xml:space="preserve">
<style type="text/css">
	.st0{fill:#FFFFFF;}
	.st1{display:none;fill:none;stroke:#FFFFFF;stroke-miterlimit:10;}
	.st2{fill:none;stroke:#FFFFFF;stroke-miterlimit:10;}
</style>
<circle class="st1" cx="16" cy="11.5" r="16"/>
<path class="st0" d="M26.53,17.75C27.47,16.05,28,14.09,28,12c0-6.63-5.37-12-12-12S4,5.37,4,12c0,2.09,0.53,4.05,1.47,5.75
	l-4.22,2.71c2.41,4.17,6.54,7.24,11.42,8.21L16,32l3.33-3.33c4.88-0.97,9.01-4.04,11.42-8.21L26.53,17.75z M12.76,4.5h0.95
	C14.1,3.62,14.98,3,16,3s1.9,0.62,2.29,1.5h0.95C21.32,4.5,23,6.18,23,8.26c-0.72-0.48-1.58-0.76-2.5-0.76
	c-2.14,0-3.92,1.5-4.38,3.5h-0.24c-0.46-2-2.24-3.5-4.38-3.5c-0.92,0-1.78,0.28-2.5,0.76C9,6.18,10.68,4.5,12.76,4.5z M23,12
	c0,1.38-1.12,2.5-2.5,2.5S18,13.38,18,12c0-1.38,1.12-2.5,2.5-2.5S23,10.62,23,12z M11.5,9.5c1.38,0,2.5,1.12,2.5,2.5
	c0,1.38-1.12,2.5-2.5,2.5S9,13.38,9,12C9,10.62,10.12,9.5,11.5,9.5z M2.89,21.15c1.08-0.78,2.15-1.56,3.23-2.34
	c0.72,1.04,1.61,1.96,2.61,2.73c-0.79,1.07-1.57,2.14-2.36,3.22C5.04,23.75,3.87,22.54,2.89,21.15z M12.1,27.5
	c-1.56-0.39-3.03-1.01-4.39-1.84c0.68-1.15,1.35-2.29,2.03-3.44c1.01,0.62,2.13,1.1,3.31,1.4C12.74,24.91,12.42,26.2,12.1,27.5z
	 M18.39,28.2L16,30.5l-2.39-2.3l-0.02-0.02c0.21-1.44,0.42-2.88,0.63-4.32C14.8,23.94,15.39,24,16,24s1.2-0.06,1.78-0.15
	c0.21,1.44,0.42,2.88,0.63,4.32L18.39,28.2z M16,20.5c0,0-1.99-0.86-2.42-2h-0.53c-1.13,0-2.05-0.98-2.05-2.18
	c0.17,0.02,0.33,0.05,0.5,0.05c0.01,0,0.01,0,0.02,0c0.98-0.01,1.8-0.67,2.23-1.52c0.4-0.8,1.26-1.36,2.24-1.36s1.84,0.55,2.24,1.36
	c0.43,0.85,1.25,1.51,2.23,1.52c0.01,0,0.01,0,0.02,0c0.17,0,0.33-0.03,0.5-0.05c0,1.2-0.92,2.18-2.05,2.18h-0.53
	C17.99,19.64,16,20.5,16,20.5z M19.9,27.5c-0.32-1.29-0.63-2.58-0.95-3.88c1.18-0.3,2.3-0.77,3.31-1.4
	c0.68,1.15,1.35,2.29,2.03,3.44C22.93,26.48,21.46,27.1,19.9,27.5z M25.63,24.75c-0.79-1.07-1.57-2.14-2.36-3.22
	c1.01-0.77,1.89-1.69,2.61-2.73c1.08,0.78,2.15,1.56,3.23,2.34C28.13,22.54,26.96,23.75,25.63,24.75z"/>
</svg>
