<?xml version="1.0" encoding="utf-8"?>
<!-- Generator: Adobe Illustrator 19.2.1, SVG Export Plug-In . SVG Version: 6.00 Build 0)  -->
<svg version="1.1" id="Layer_1" xmlns="http://www.w3.org/2000/svg" xmlns:xlink="http://www.w3.org/1999/xlink" x="0px" y="0px"
	 viewBox="0 0 32 32" style="enable-background:new 0 0 32 32;" xml:space="preserve">
<style type="text/css">
	.st0{fill:#FFFFFF;}
	.st1{fill-rule:evenodd;clip-rule:evenodd;fill:#FFFFFF;}
</style>
<g id="XMLID_226_">
	<ellipse class="st1" cx="3.5" cy="30.498" rx="0.5" ry="0.502"/>
</g>
<g>
	<circle class="st1" cx="11.5" cy="24.5" r="1"/>
</g>
<g>
	<circle class="st1" cx="4" cy="21" r="1.5"/>
</g>
<g>
	<path class="st1" d="M31.788,0.209c-0.279-0.279-0.731-0.279-1.009,0L10,21c-0.667,0-0.951-0.351-1.075-0.637
		c-0.025-0.117-0.056-0.231-0.095-0.343C8.829,20.014,8.828,20,8.828,20l-0.002,0.005c-0.358-1.01-1.239-1.77-2.321-1.954
		C6.504,18.034,6.5,18.017,6.5,18c0-0.87,0.628-1.602,1.5-1.878C7.764,16.048,7.514,16,7.25,16C6.007,16,5,16.895,5,18
		c0,0.063,0.015,0.123,0.021,0.185c-0.489,0.174-0.925,0.457-1.263,0.839C3.839,19.015,3.917,19,4,19c1.103,0,2,0.897,2,2
		s-0.897,2-2,2c-0.083,0-0.161-0.015-0.242-0.024C4.308,23.599,5.104,24,6,24c0.343,0,0.667-0.07,0.975-0.176l-4.671,4.206
		c0,0-0.2-0.031-0.304-0.031c-0.351,0-0.677,0.099-0.964,0.258C1.013,28.176,1,28.09,1,28c0-0.366,0.206-0.673,0.5-0.847
		C1.351,27.065,1.186,27,1,27c-0.552,0-1,0.448-1,1c0,0.33,0.17,0.608,0.417,0.791C0.159,29.127,0,29.543,0,30c0,1.105,0.895,2,2,2
		c0.29,0,0.563-0.065,0.812-0.175C2.332,31.574,2,31.077,2,30.498c0-0.828,0.673-1.502,1.5-1.502c0.34,0,0.65,0.118,0.902,0.31
		l4.612-5.173C9.083,25.174,9.941,26,11,26c0.086,0,0.167-0.015,0.25-0.025C10.542,25.855,10,25.242,10,24.5
		c0-0.827,0.673-1.5,1.5-1.5c0.742,0,1.355,0.542,1.475,1.25C12.985,24.167,13,24.086,13,24c0.552,0,1-0.448,1-1
		c0-0.186-0.065-0.351-0.153-0.5C13.672,22.794,13.366,23,13,23c-0.11,0-0.211-0.023-0.308-0.057
		c-0.35-0.558-0.964-0.932-1.669-0.94c3.937-3.94,18.137-18.148,20.772-20.789C32.072,0.935,32.067,0.488,31.788,0.209z"/>
</g>
</svg>
