<?xml version="1.0" encoding="utf-8"?>
<!-- Generator: Adobe Illustrator 23.0.3, SVG Export Plug-In . SVG Version: 6.00 Build 0)  -->
<svg version="1.1" id="Layer_1" xmlns="http://www.w3.org/2000/svg" xmlns:xlink="http://www.w3.org/1999/xlink" x="0px" y="0px"
	 viewBox="0 0 32 32" style="enable-background:new 0 0 32 32;" xml:space="preserve">
<style type="text/css">
	.st0{fill:#FFFFFF;}
	.st1{display:none;fill:none;stroke:#FFFFFF;stroke-miterlimit:10;}
	.st2{fill:none;stroke:#FFFFFF;stroke-miterlimit:10;}
</style>
<g>
	<path class="st0" d="M18.64,15.26L7.37,3.79l-0.7,0.71L18.15,16.2C18.26,15.86,18.43,15.55,18.64,15.26z"/>
	<path class="st0" d="M28.07,12.72c-2.86-2.91-6.47-4.29-9.48-3.94L11.23,1.3c-0.39-0.4-1.03-0.4-1.42,0L9.47,1.65l12.02,12.23
		c1.28,0.01,2.67,0.57,3.77,1.7c1.94,1.97,2.25,4.85,0.7,6.43c-1.55,1.58-4.38,1.26-6.32-0.71c-1.1-1.12-1.66-2.54-1.67-3.84
		L6.67,5.94c-0.39-0.4-1.03-0.4-1.42,0L4.91,6.29l-1.4-1.43l-0.7,0.71L4.21,7l-0.7,0.71l-1.4-1.43L1.4,7l1.4,1.43l-0.7,0.71
		L0.7,7.72L0,8.43l1.4,1.43l-0.7,0.71c0.78,0.79,2.03,0.79,2.81,0l2.81-2.86l6.65,6.77c-0.34,3.06,1.02,6.75,3.87,9.65
		c4.26,4.34,10.23,5.3,13.33,2.14S32.33,17.06,28.07,12.72z"/>
	<path class="st0" d="M20.26,14.05L8.77,2.36l-0.7,0.71l11.27,11.47C19.62,14.34,19.93,14.16,20.26,14.05z"/>
	<path class="st0" d="M16.14,24.86c-2.85-2.9-4.4-6.6-4.2-9.98l-0.65-0.66L7.02,9.86l-0.7-0.71l-0.7,0.71l-1.4,1.43
		c-0.53,0.54-1.22,0.82-1.92,0.87c0.78,0.62,1.9,0.58,2.62-0.15l1.4-1.43l4.46,4.54c-1.56,3.34-0.34,8.22,3.26,11.88
		c4.26,4.34,10.23,5.3,13.33,2.14c0.09-0.09,0.16-0.19,0.24-0.29C24.09,29.78,19.58,28.35,16.14,24.86z"/>
</g>
<path class="st0" d="M29.41,24L28,25.41c-0.39,0.39-1.02,0.39-1.41,0l0,0c-0.39-0.39-0.39-1.02,0-1.41L28,22.59
	c0.39-0.39,1.02-0.39,1.41,0l0,0C29.8,22.98,29.8,23.61,29.41,24z"/>
</svg>
