<?xml version="1.0" encoding="utf-8"?>
<!-- Generator: Adobe Illustrator 19.2.1, SVG Export Plug-In . SVG Version: 6.00 Build 0)  -->
<svg version="1.1" id="Layer_1" xmlns="http://www.w3.org/2000/svg" xmlns:xlink="http://www.w3.org/1999/xlink" x="0px" y="0px"
	 viewBox="0 0 32 32" style="enable-background:new 0 0 32 32;" xml:space="preserve">
<style type="text/css">
	.st0{fill:#FFFFFF;}
	.st1{fill-rule:evenodd;clip-rule:evenodd;fill:#FFFFFF;}
</style>
<g id="Link_x27_s_Awakening_2_">
	<g id="XMLID_1_">
		<path class="st0" d="M25.76,21.463c0-2.427,1.694-4.394,3.784-4.394c0.155,0,0.306,0.014,0.456,0.035
			c-0.013-0.462-0.042-0.927-0.098-1.395C28.863,7.06,23.153-0.002,16,0C8.848-0.002,3.138,7.06,2.099,15.708
			C2.043,16.188,2.012,16.663,2,17.136c0.207-0.041,0.419-0.067,0.636-0.067c2.09,0,3.785,1.967,3.785,4.394
			c0,1.747-0.881,3.251-2.153,3.959C6.714,29.298,10.942,31.936,16,32c5.091-0.065,9.341-2.735,11.781-6.651
			C26.579,24.613,25.76,23.151,25.76,21.463z M7,9c0-1.933,1.343-3.5,3-3.5c1.657,0,3,1.567,3,3.5c0,1.933-1.343,3.5-3,3.5
			C8.343,12.5,7,10.933,7,9z M15,26c-2.761,0-5-2.686-5-6c0-3.314,2.238-6,5-6c2.762,0,5,2.686,5,6C20,23.314,17.761,26,15,26z
			 M22.004,14c-1.657,0-3-1.791-3-4c0-2.209,1.343-4,3-4c1.657,0,3,1.791,3,4C25.004,12.209,23.661,14,22.004,14z"/>
	</g>
</g>
</svg>
