<?xml version="1.0" encoding="utf-8"?>
<!-- Generator: Adobe Illustrator 19.2.1, SVG Export Plug-In . SVG Version: 6.00 Build 0)  -->
<svg version="1.1" id="Layer_1" xmlns="http://www.w3.org/2000/svg" xmlns:xlink="http://www.w3.org/1999/xlink" x="0px" y="0px"
	 viewBox="0 0 32 32" style="enable-background:new 0 0 32 32;" xml:space="preserve">
<style type="text/css">
	.st0{fill:#FFFFFF;}
	.st1{fill-rule:evenodd;clip-rule:evenodd;fill:#FFFFFF;}
</style>
<path class="st0" d="M23.467,22.657C23.486,22.44,23.5,22.222,23.5,22c0-2.726-1.447-5.177-3.763-6.5
	c1.988-1.136,3.329-3.106,3.67-5.364L26,11l2-3l-2.281-2.594L23.5,5.813l-0.219-0.469l1.344-3.75L24,1l-5-1h-3h-3L8,1L7.375,1.594
	l1.344,3.75L8.5,5.813L6.281,5.406L4,8l2,3l2.593-0.864c0.342,2.259,1.682,4.228,3.67,5.364C9.947,16.823,8.5,19.274,8.5,22
	c0,0.222,0.014,0.44,0.033,0.657L7,22l-2,2.5l2,2L8.5,26L9,27l-2,4l2,1h7h7l2-1l-2-4l0.5-1l1.5,0.5l2-2L25,22L23.467,22.657z
	 M8.5,1.922L13.08,1h5.841l4.58,0.922L22.404,5H17.5L17,4h-2l-0.5,1H9.596L8.5,1.922z M13.597,15.965
	c0.19-0.076,0.315-0.26,0.315-0.465s-0.125-0.389-0.315-0.465c-2.446-0.974-4.033-3.281-4.087-5.9l1.74-2.948L14,6.781L15,9h1h1
	l1-2.219l2.75-0.594l1.74,2.948c-0.054,2.618-1.641,4.925-4.087,5.9c-0.19,0.076-0.315,0.26-0.315,0.465s0.125,0.389,0.315,0.465
	C20.892,16.956,22.5,19.325,22.5,22c0,0.381-0.04,0.752-0.103,1.115L21.5,23.5l-1.25,1.75L18.5,25l-1.094-2H16h-1.406L13.5,25
	l-1.75,0.25L10.5,23.5l-0.897-0.385C9.54,22.752,9.5,22.381,9.5,22C9.5,19.325,11.108,16.956,13.597,15.965z M23.5,30.549L22.624,31
	H9.376L8.5,30.549L10.224,27h11.553L23.5,30.549z"/>
<path class="st0" d="M16.585,19.917l0.386-4.905c0.031-0.389,0.282-0.735,0.653-0.857c2.152-0.706,3.686-2.774,3.578-5.187
	c-0.009-0.032-0.019-0.063-0.028-0.095l-0.919-1.557l-1.551,0.335L17.646,10h-3.292l-1.058-2.348l-1.551-0.335l-0.919,1.557
	c-0.009,0.032-0.019,0.063-0.028,0.095c-0.108,2.412,1.426,4.481,3.578,5.187c0.371,0.122,0.623,0.467,0.653,0.857l0.399,5.075
	c-1.47,0.217-2.94,0.417-4.41,0.474c-0.133,0.46-0.227,0.936-0.227,1.439c0,0.192,0.036,0.375,0.057,0.562l0.303,0.13l1.06,1.482
	l0.652-0.093L14.001,22h3.998l1.138,2.081l0.652,0.093l1.06-1.482l0.303-0.13c0.02-0.187,0.057-0.369,0.057-0.562
	c0-0.924-0.261-1.78-0.683-2.532C19.212,19.544,17.898,19.724,16.585,19.917z"/>
</svg>
