<?xml version="1.0" encoding="UTF-8"?>
<!-- Generator: Adobe Illustrator 25.0.0, SVG Export Plug-In . SVG Version: 6.00 Build 0)  -->
<svg xmlns="http://www.w3.org/2000/svg" xmlns:xlink="http://www.w3.org/1999/xlink" version="1.1" id="Layer_1" x="0px" y="0px" viewBox="0 0 32 32" style="enable-background:new 0 0 32 32;" xml:space="preserve">
<style type="text/css">
	.st0{fill:#FFFFFF;}
</style>
<path class="st0" d="M24.67,28.44c-0.06,0.35-0.28,0.67-0.59,0.91c-0.39,0.3-0.87,0.5-1.31,0.74c-0.58,0.32-1.09,0.7-1.59,1.08  c-0.32,0.24-0.64,0.49-1.05,0.63c-0.81,0.26-1.8-0.04-2.28-0.62c-1-1.23-0.01-2.77-0.16-4.1c-0.02-0.22-0.08-0.44-0.03-0.65  c0.09-0.36,0.46-0.64,0.88-0.77s0.88-0.16,1.34-0.15c0.74,0,1.55,0.08,2.04,0.52c0.35,0.32,0.45,0.79,0.8,1.11  c0.26,0.24,0.66,0.39,1.06,0.39c0.17,0,0.34-0.02,0.5,0.01c0.07,0.01,0.12,0.04,0.17,0.07C24.72,27.77,24.72,28.21,24.67,28.44z   M16.66,27.99c0.03-0.9-0.36-1.87-1-2.58c-0.39-0.44-0.93-0.82-1.5-1.11c-0.61-0.31-1.22-0.67-1.91-0.85  c-0.27-0.07-0.55-0.1-0.83-0.11c-0.07,0-0.71,0.07-0.73,0.02c0.28,0.53,0.58,1.06,0.7,1.63c0.12,0.6-0.05,1.22-0.29,1.79  c-0.02,0.06-0.06,0.12-0.13,0.13c-0.05,0.01-0.11,0-0.16-0.04c-0.04-0.03-0.07-0.07-0.09-0.12c-0.26-0.49-0.31-1.04-0.43-1.56  c-0.1-0.42-0.21-0.92-0.56-1.26c-0.44-0.42-1.25-0.34-1.79-0.63c-0.05-0.03-0.09-0.06-0.12-0.1c-0.03-0.07,0-0.14,0.04-0.21  c0.32-0.61,0.58-1.28,0.5-1.96c-0.11-0.86-0.72-1.53-1.32-2.21c-0.08-0.1-0.17-0.2-0.2-0.31c-0.05-0.22,0.13-0.43,0.32-0.6  c0.19-0.17,0.41-0.33,0.46-0.55c0.05-0.21-0.07-0.43-0.24-0.6c-0.17-0.17-0.39-0.3-0.58-0.46c-0.2-0.16-0.38-0.34-0.52-0.54  c-0.05-0.07-0.1-0.16-0.1-0.24c0.01-0.18,0.23-0.28,0.4-0.4c0.37-0.25,0.56-0.65,0.49-1.03c-0.11-0.61-0.95-1.02-1.51-1.36  c-0.71-0.44-1.46-0.83-2.24-1.18c-0.22-0.1-0.47-0.19-0.7-0.12c0.53,0.49,1.06,0.99,1.59,1.48c0.46,0.43,0.75,0.94,0.44,1.5  c-0.16,0.28-0.4,0.53-0.58,0.81c-0.26,0.4-0.36,0.87-0.26,1.32c0.23,0.94,1.34,1.63,1.54,2.58c0.1,0.45-0.03,0.92-0.26,1.34  c-0.23,0.42-0.56,0.8-0.9,1.18c-0.08,0.09-0.16,0.18-0.17,0.29c0,0.07,0.03,0.14,0.06,0.2c0.29,0.56,0.92,0.85,1.35,1.32  c0.92,1.01-0.26,2.6,1.11,3.43c0.26,0.16,0.57,0.26,0.86,0.38c0.11,0.05,0.23,0.1,0.31,0.18c0.11,0.13,0.1,0.29,0.1,0.43  c0,0.17,0.04,0.31,0.11,0.46c0.16,0.35,0.44,0.66,0.74,0.94c0.46,0.43,1.02,0.84,1.64,1.12c0.02,0.01,0.07,0.04,0.1,0.04  c0.71-0.03-0.28-1.21,2.18-0.06c1.55,0.75-0.28,1,0.7,1.19c1.78,0.03,2.67-1.42,3.12-2.58c0.06-0.15,0.11-0.29,0.15-0.44  C16.62,28.39,16.65,28.19,16.66,27.99z M9.83,21.31c0.2,0.59,1.36,0.52,2.07,0.6c0.95,0.11,1.89,0.23,2.84,0.35  c1.89,0.24,3.77,0.51,5.65,0.79c0.91,0.14,1.9,0.32,2.49,0.87c0.41,0.38,0.57,0.89,0.92,1.31s1.06,0.75,1.62,0.51  c0.26-0.11,0.42-0.32,0.54-0.53c1.02-1.69,0.37-3.83,1.73-5.37c0.55-0.62,1.42-1.16,1.42-1.91c0.01-0.77-0.96-1.45-0.76-2.21  c0.18-0.68,1.26-1.23,0.95-1.89c-0.09-0.19-0.28-0.33-0.44-0.49c-0.85-0.82-0.89-1.94-1.07-2.98c-0.19-1.03-0.73-2.19-2-2.54  c0.65,1.27,0.77,2.69,0.34,4.01c-0.17,0.54-0.44,1.08-0.35,1.63c0.15,0.88,1.19,1.68,0.86,2.54c-0.28,0.71-1.43,1.08-1.63,1.81  c-0.1,0.35,0.06,0.72,0.12,1.08s-0.01,0.78-0.4,0.98c-0.46,0.23-1.09,0.02-1.47-0.29c-0.8-0.66-0.93-1.74-0.31-2.5  c0.36-0.44,0.93-0.77,1.19-1.24c0.37-0.68,0.02-1.45-0.29-2.15c-0.48-1.05-0.88-2.22-0.33-3.25c0.3-0.56,0.88-1.05,0.91-1.66  c0.05-1.06-1.54-1.72-1.99-2.72c-0.45-1.01,0.27-2.3-0.67-3.08c-0.18,1-1.47,1.79-1.38,2.79c0.05,0.58,0.57,1.1,0.57,1.68  c0,0.65-0.66,1.24-0.61,1.89c0.08,0.93,1.59,1.64,1.31,2.55c-0.15,0.5-0.79,0.8-1.12,1.25c-0.64,0.87,0.08,1.95,0.16,2.95  c0.04,0.53-0.19,1.14-0.82,1.35c-0.83,0.27-1.76-0.38-1.85-1.07s0.35-1.34,0.78-1.95c0.43-0.61,0.86-1.27,0.73-1.96  c-0.13-0.64-0.73-1.16-1.14-1.72c-0.75-1.02-0.89-2.29-0.37-3.39c0.3-0.64,0.81-1.34,0.44-1.96c-0.15-0.25-0.43-0.45-0.58-0.7  c-0.19-0.34-0.1-0.73-0.09-1.1c0.06-1.5-1.24-2.98-3.08-3.48c-0.05,1.14,1.19,2.14,1.15,3.28c-0.03,0.9-0.86,1.69-0.92,2.59  c-0.09,1.43,1.74,2.65,1.5,4.07c-0.14,0.86-1.04,1.58-1.09,2.45c-0.04,0.72,0.5,1.37,0.73,2.06c0.3,0.92,0,1.94-0.78,2.68  c-0.22,0.21-0.56,0.42-0.9,0.34c-0.13-0.03-0.25-0.1-0.34-0.18c-0.7-0.56-0.7-1.44-0.54-2.2c0.16-0.77,0.43-1.56,0.11-2.3  c-0.22-0.52-0.73-0.97-0.79-1.52c-0.07-0.6,0.41-1.14,0.54-1.73c0.16-0.76-0.28-1.5-0.64-2.22c-0.87-1.75-1.31-3.62-1.26-5.49  c-0.95,0.46-0.99,1.5-0.91,2.36c0.07,0.84,0.14,1.69-0.14,2.5c-0.28,0.8-0.9,1.62-0.53,2.4c0.33,0.68,1.37,1.16,1.31,1.88  c-0.04,0.49-0.58,0.85-0.92,1.26c-0.67,0.83-0.38,1.65,0.17,2.44c0.47,0.68,1.2,1.74,0.49,2.46c-0.41,0.42-0.89,0.81-0.97,1.34  C9.98,18.59,9.53,20.43,9.83,21.31z"></path>
</svg>
