<?xml version="1.0" encoding="utf-8"?>
<!-- Generator: Adobe Illustrator 19.2.1, SVG Export Plug-In . SVG Version: 6.00 Build 0)  -->
<svg version="1.1" id="Layer_1" xmlns="http://www.w3.org/2000/svg" xmlns:xlink="http://www.w3.org/1999/xlink" x="0px" y="0px"
	 viewBox="0 0 32 32" style="enable-background:new 0 0 32 32;" xml:space="preserve">
<style type="text/css">
	.st0{fill:#FFFFFF;}
	.st1{fill-rule:evenodd;clip-rule:evenodd;fill:#FFFFFF;}
</style>
<g id="XMLID_190_">
	<path class="st0" d="M18.5,11h-5L16,7L18.5,11z"/>
</g>
<g id="XMLID_30_">
	<path class="st0" d="M16,15h-5l2.5-4L16,15z"/>
</g>
<g id="XMLID_11_">
	<path class="st0" d="M21,15h-5l2.5-4L21,15z"/>
</g>
<g>
	<path class="st0" d="M21,17h-4.066h-1.868H11l5,8L21,17z M19,18l-1,1.75L17,18H19z M15,18l-1,1.75L13,18H15z M16,18.25L17,20h-2
		L16,18.25z M16,22.75L15,21h2L16,22.75z"/>
</g>
<g>
	<path class="st0" d="M8,5v22h16V5H8z M23,26H9V6h14V26z"/>
</g>
<g>
	<path class="st0" d="M27,26.184V5.816C28.163,5.403,29,4.304,29,3c0-1.657-1.343-3-3-3c-1.304,0-2.403,0.837-2.816,2H8.816
		C8.403,0.837,7.304,0,6,0C4.343,0,3,1.343,3,3c0,1.304,0.837,2.403,2,2.816v20.367C3.837,26.597,3,27.696,3,29c0,1.657,1.343,3,3,3
		c1.304,0,2.403-0.837,2.816-2h14.367c0.413,1.163,1.512,2,2.816,2c1.657,0,3-1.343,3-3C29,27.696,28.163,26.597,27,26.184z
		 M25,5.816v20.367V28h-1.816H8.816H7v-1.816V5.816V4h1.816h14.367H25V5.816z"/>
</g>
</svg>
