<svg xmlns="http://www.w3.org/2000/svg" xml:space="preserve" id="Layer_1" x="0px" y="0px" version="1.1" viewBox="0 0 32 32"><style>.st0{fill:#fff}</style><path id="XMLID_4_" d="m12 14 4 7 4-7z" class="st0"/><path d="M31 15h-5c-.018 0-.032.009-.05.01a10 10 0 0 0-.54-2.367l2.64-1.093a.5.5 0 0 0-.382-.924l-2.64 1.093a10 10 0 0 0-1.292-2.055c.013-.012.03-.016.043-.029L27.314 6.1A.999.999 0 1 0 25.9 4.686l-3.535 3.535c-.013.013-.017.03-.029.043a10 10 0 0 0-2.055-1.292l1.094-2.64a.5.5 0 0 0-.924-.382l-1.094 2.64a10 10 0 0 0-2.367-.54c.001-.018.01-.032.01-.05V1a1 1 0 0 0-2 0v5c0 .018.009.032.01.05a10 10 0 0 0-2.367.54L11.55 3.95a.5.5 0 0 0-.924.382l1.093 2.64c-.738.35-1.431.78-2.055 1.292-.012-.013-.016-.03-.029-.043L6.101 4.687a.999.999 0 1 0-1.414 1.414l3.535 3.535c.013.013.03.017.043.029a10 10 0 0 0-1.292 2.055l-2.64-1.093a.499.499 0 1 0-.382.924l2.64 1.093a10 10 0 0 0-.54 2.367C6.032 15.009 6.018 15 6 15H1a1 1 0 0 0 0 2h5c.018 0 .032-.009.05-.01.081.824.271 1.614.54 2.367L3.95 20.45a.5.5 0 0 0 .382.924l2.64-1.093c.35.738.78 1.431 1.292 2.055-.013.012-.03.016-.043.029L4.686 25.9A.999.999 0 1 0 6.1 27.314l3.535-3.535c.013-.013.017-.03.029-.043a10 10 0 0 0 2.055 1.292l-1.093 2.64a.5.5 0 0 0 .924.382l1.093-2.64a10 10 0 0 0 2.367.54c-.001.018-.01.032-.01.05v5a1 1 0 0 0 2 0v-5c0-.018-.009-.032-.01-.05a10 10 0 0 0 2.367-.54l1.094 2.64a.5.5 0 0 0 .653.271.5.5 0 0 0 .271-.653l-1.094-2.64c.738-.35 1.43-.78 2.055-1.292.012.013.016.03.029.043l3.535 3.535a.997.997 0 0 0 1.414 0 1 1 0 0 0 0-1.414l-3.535-3.535c-.013-.013-.03-.017-.043-.029a10 10 0 0 0 1.292-2.055l2.64 1.093a.5.5 0 1 0 .382-.924l-2.64-1.093a10 10 0 0 0 .54-2.367c.018.001.032.01.05.01h5a1 1 0 1 0 0-2m-15 6H8l4-7 4-7 4 7 4 7z" class="st0"/></svg>