<?xml version="1.0" encoding="utf-8"?>
<!-- Generator: Adobe Illustrator 19.2.1, SVG Export Plug-In . SVG Version: 6.00 Build 0)  -->
<svg version="1.1" id="Icons" xmlns="http://www.w3.org/2000/svg" xmlns:xlink="http://www.w3.org/1999/xlink" x="0px" y="0px"
	 viewBox="0 0 32 32" style="enable-background:new 0 0 32 32;" xml:space="preserve">
<style type="text/css">
	.st0{fill-rule:evenodd;clip-rule:evenodd;}
	.st1{fill:#FFFFFF;}
</style>
<g>
	<path class="st1" d="M12.142,29.916c-1.445-0.431-2.804-1.107-4.021-1.984l0.928-1.145c0.253,0.116,0.531,0.184,0.827,0.184
		c1.103,0,2-0.899,2-2.003s-0.897-2.003-2-2.003s-2,0.899-2,2.003c0,0.445,0.151,0.853,0.397,1.186l-0.939,1.158
		c-0.803-0.674-1.525-1.445-2.156-2.292C5.684,24.482,6,23.762,6,22.966c0-1.657-1.346-3.004-3-3.004s-3,1.347-3,3.004
		s1.346,3.004,3,3.004c0.499,0,0.962-0.134,1.376-0.351c0.768,1.03,1.665,1.949,2.666,2.737c0.016,0.018,0.026,0.039,0.045,0.055
		c0.026,0.021,0.055,0.032,0.084,0.047c1.399,1.078,2.984,1.91,4.685,2.418c0.047,0.014,0.096,0.021,0.143,0.021
		c0.216,0,0.415-0.141,0.479-0.358C12.558,30.274,12.407,29.995,12.142,29.916z M9.875,23.967c0.551,0,1,0.449,1,1.001
		c0,0.553-0.449,1.001-1,1.001s-1-0.449-1-1.001C8.875,24.416,9.324,23.967,9.875,23.967z M3,24.968c-1.103,0-2-0.899-2-2.003
		s0.897-2.003,2-2.003s2,0.899,2,2.003S4.104,24.968,3,24.968z"/>
	<path class="st1" d="M29,19.961c-1.654,0-3,1.347-3,3.004c0,0.796,0.316,1.516,0.823,2.055c-0.631,0.848-1.353,1.619-2.156,2.292
		l-0.939-1.158c0.246-0.333,0.397-0.741,0.397-1.186c0-1.104-0.897-2.003-2-2.003s-2,0.899-2,2.003s0.897,2.003,2,2.003
		c0.296,0,0.574-0.069,0.827-0.184l0.928,1.145c-1.217,0.877-2.576,1.554-4.021,1.984c-0.265,0.079-0.416,0.358-0.336,0.623
		c0.064,0.217,0.263,0.358,0.479,0.358c0.047,0,0.095-0.007,0.143-0.021c1.702-0.507,3.287-1.34,4.687-2.419
		c0.028-0.015,0.057-0.025,0.082-0.046c0.019-0.015,0.028-0.037,0.044-0.054c1.001-0.789,1.899-1.708,2.667-2.738
		c0.414,0.216,0.878,0.351,1.376,0.351c1.654,0,3-1.347,3-3.004S30.654,19.961,29,19.961z M22.125,25.97c-0.551,0-1-0.449-1-1.001
		c0-0.552,0.449-1.001,1-1.001s1,0.449,1,1.001C23.125,25.521,22.676,25.97,22.125,25.97z M29,24.968c-1.103,0-2-0.899-2-2.003
		s0.897-2.003,2-2.003s2,0.899,2,2.003S30.103,24.968,29,24.968z"/>
	<path class="st1" d="M23.029,6.182c1.061,0.499,2.008,1.098,2.819,1.7c0.3,0.223,0.728,0.039,0.786-0.331l0.608-3.868
		c0.066-0.423-0.393-0.73-0.758-0.507l-3.49,2.129C22.657,5.51,22.673,6.014,23.029,6.182z"/>
	<path class="st1" d="M14.272,4.939c0.554-0.084,1.126-0.13,1.71-0.13c0.477,0,1.167,0.083,1.722,0.164
		c0.395,0.057,0.696-0.344,0.531-0.708l-1.794-3.947C16.353,0.123,16.171,0.002,15.989,0c-0.187-0.002-0.375,0.118-0.466,0.318
		l-1.782,3.918C13.576,4.599,13.877,4.999,14.272,4.939z"/>
	<path class="st1" d="M6.146,7.871c0.813-0.602,1.762-1.201,2.825-1.699c0.354-0.166,0.369-0.666,0.036-0.87L5.511,3.171
		C5.148,2.95,4.694,3.254,4.759,3.673l0.608,3.87C5.425,7.909,5.849,8.092,6.146,7.871z"/>
	<path class="st1" d="M17.993,25.28c-0.279-0.871-0.462-1.637-0.588-2.299c2.494-0.294,7.545-1.707,10.262-7.402h1.238
		C30.56,15.523,32,14.201,32,12.482c0-1.177-0.914-2.504-2-2.504c-0.975,0-0.17,2-0.17,2c0,0.629-0.219,0.871-0.83,0.871h-0.366
		c0,0-1.078-0.227-2.217-1.188c-0.011-0.009-0.018-0.014-0.028-0.022C24.239,9.705,20.522,7.017,16,6.978
		c-4.522,0.039-8.239,2.727-10.388,4.661c-0.01,0.008-0.018,0.013-0.028,0.022c-1.139,0.961-2.217,1.188-2.217,1.188H3
		c-0.611,0-0.83-0.242-0.83-0.871c0,0,0.705-2-0.17-2c-1.086,0-2,1.326-2,2.504c0,1.72,1.44,3.041,3.095,3.097h1.238
		c2.717,5.695,7.768,7.108,10.262,7.402c-0.126,0.662-0.31,1.428-0.588,2.299c-0.832,2.602-1.023,3.136-1.005,3.636
		c-0.001,0.028,0,0.018,0,0.047c0,1.649,1.427,2.984,2.999,3.038c1.571-0.054,2.999-1.389,2.999-3.038c0-0.028,0.001-0.018,0-0.047
		C19.017,28.416,18.825,27.882,17.993,25.28z M5.822,14.132c0.951-0.958,2.76-2.562,5.102-3.672
		c-0.628,0.708-1.128,1.542-1.424,2.493c-0.102,0.326,0.081,0.673,0.407,0.775c0.061,0.019,0.123,0.028,0.184,0.028
		c0.264,0,0.508-0.17,0.591-0.435c0.728-2.34,2.866-3.913,5.32-3.913c2.446,0,4.582,1.566,5.315,3.898
		c0.103,0.325,0.451,0.508,0.776,0.404c0.326-0.102,0.508-0.45,0.405-0.776c-0.296-0.941-0.793-1.767-1.416-2.469
		c2.338,1.109,4.144,2.711,5.094,3.668c-0.761,1.738-2.481,3.538-4.623,4.784c0.404-0.573,0.727-1.214,0.945-1.913
		c0.102-0.326-0.081-0.673-0.407-0.775c-0.328-0.103-0.673,0.082-0.775,0.407c-0.678,2.178-2.58,3.673-4.817,3.873
		c-0.167,0.009-0.333,0.023-0.5,0.023c-0.172,0-0.343-0.014-0.514-0.023c-2.226-0.203-4.122-1.69-4.804-3.857
		c-0.103-0.324-0.448-0.505-0.776-0.404c-0.326,0.102-0.508,0.45-0.405,0.776c0.217,0.69,0.539,1.323,0.939,1.889
		C8.301,17.666,6.583,15.868,5.822,14.132z"/>
	<circle class="st1" cx="9.81" cy="14.978" r="0.619"/>
	<path class="st1" d="M16,18.692c2.051,0,3.714-1.663,3.714-3.714S18.051,11.264,16,11.264c-2.051,0-3.714,1.663-3.714,3.714
		S13.949,18.692,16,18.692z M16,13.74c0.684,0,1.238,0.554,1.238,1.238S16.684,16.216,16,16.216c-0.684,0-1.238-0.554-1.238-1.238
		S15.316,13.74,16,13.74z"/>
	<circle class="st1" cx="22.19" cy="14.978" r="0.619"/>
</g>
</svg>
