<svg xmlns="http://www.w3.org/2000/svg" xml:space="preserve" id="Icons" x="0px" y="0px" version="1.1" viewBox="0 0 32 32"><style>.st1{fill:#fff}</style><path d="M12.142 29.916a13.5 13.5 0 0 1-4.021-1.984l.928-1.145c.253.116.531.184.827.184a2.004 2.004 0 0 0 0-4.006c-1.103 0-2 .899-2 2.003 0 .445.151.853.397 1.186l-.939 1.158a13.6 13.6 0 0 1-2.156-2.292A3 3 0 0 0 6 22.966a3.005 3.005 0 0 0-3-3.004 3.005 3.005 0 0 0 0 6.008 2.95 2.95 0 0 0 1.376-.351 14.6 14.6 0 0 0 2.666 2.737c.016.018.026.039.045.055.026.021.055.032.084.047a14.5 14.5 0 0 0 4.685 2.418.5.5 0 1 0 .286-.96m-2.267-5.949a1.002 1.002 0 0 1 0 2.002 1.002 1.002 0 0 1 0-2.002M3 24.968a2.004 2.004 0 0 1 0-4.006 2.004 2.004 0 0 1 0 4.006m26-5.007c-1.654 0-3 1.347-3 3.004 0 .796.316 1.516.823 2.055a13.5 13.5 0 0 1-2.156 2.292l-.939-1.158a2 2 0 0 0 .397-1.186 2.004 2.004 0 0 0-2-2.003 2.004 2.004 0 0 0 0 4.006c.296 0 .574-.069.827-.184l.928 1.145a13.5 13.5 0 0 1-4.021 1.984.5.5 0 1 0 .286.96 14.5 14.5 0 0 0 4.687-2.419c.028-.015.057-.025.082-.046.019-.015.028-.037.044-.054a14.6 14.6 0 0 0 2.667-2.738c.414.216.878.351 1.376.351A3.005 3.005 0 0 0 29 19.961m-6.875 6.009a1.002 1.002 0 0 1 0-2.002 1.002 1.002 0 0 1 0 2.002M29 24.968a2.004 2.004 0 0 1 0-4.006 2.004 2.004 0 0 1 0 4.006M23.029 6.182a16.6 16.6 0 0 1 2.819 1.7c.3.223.728.039.786-.331l.608-3.868a.503.503 0 0 0-.758-.507l-3.49 2.129c-.337.205-.321.709.035.877m-8.757-1.243a11.4 11.4 0 0 1 1.71-.13c.477 0 1.167.083 1.722.164a.504.504 0 0 0 .531-.708L16.441.318A.52.52 0 0 0 15.989 0a.52.52 0 0 0-.466.318l-1.782 3.918a.5.5 0 0 0 .531.703M6.146 7.871a16.6 16.6 0 0 1 2.825-1.699c.354-.166.369-.666.036-.87L5.511 3.171a.498.498 0 0 0-.752.502l.608 3.87a.495.495 0 0 0 .779.328" class="st1"/><path d="M17.993 25.28a19 19 0 0 1-.588-2.299c2.494-.294 7.545-1.707 10.262-7.402h1.238C30.56 15.523 32 14.201 32 12.482c0-1.177-.914-2.504-2-2.504-.975 0-.17 2-.17 2 0 .629-.219.871-.83.871h-.366s-1.078-.227-2.217-1.188l-.028-.022C24.239 9.705 20.522 7.017 16 6.978c-4.522.039-8.239 2.727-10.388 4.661l-.028.022c-1.139.961-2.217 1.188-2.217 1.188H3c-.611 0-.83-.242-.83-.871 0 0 .705-2-.17-2-1.086 0-2 1.326-2 2.504 0 1.72 1.44 3.041 3.095 3.097h1.238c2.717 5.695 7.768 7.108 10.262 7.402-.126.662-.31 1.428-.588 2.299-.832 2.602-1.023 3.136-1.005 3.636-.001.028 0 .018 0 .047 0 1.649 1.427 2.984 2.999 3.038C17.572 31.947 19 30.612 19 28.963c0-.028.001-.018 0-.047.017-.5-.175-1.034-1.007-3.636M5.822 14.132c.951-.958 2.76-2.562 5.102-3.672A6.8 6.8 0 0 0 9.5 12.953a.62.62 0 0 0 1.182.368 5.545 5.545 0 0 1 5.32-3.913 5.55 5.55 0 0 1 5.315 3.898.619.619 0 0 0 1.181-.372 6.8 6.8 0 0 0-1.416-2.469c2.338 1.109 4.144 2.711 5.094 3.668-.761 1.738-2.481 3.538-4.623 4.784a6.9 6.9 0 0 0 .945-1.913.62.62 0 0 0-1.182-.368 5.53 5.53 0 0 1-4.817 3.873c-.167.009-.333.023-.5.023-.172 0-.343-.014-.514-.023a5.53 5.53 0 0 1-4.804-3.857.618.618 0 1 0-1.181.372c.217.69.539 1.323.939 1.889-2.138-1.247-3.856-3.045-4.617-4.781" class="st1"/><circle cx="9.81" cy="14.978" r="0.619" class="st1"/><path d="M16 18.692a3.714 3.714 0 1 0 0-7.428 3.714 3.714 0 0 0 0 7.428m0-4.952a1.238 1.238 0 1 1 0 2.475 1.238 1.238 0 0 1 0-2.475" class="st1"/><circle cx="22.19" cy="14.978" r="0.619" class="st1"/></svg>