<svg xmlns="http://www.w3.org/2000/svg" xml:space="preserve" id="Layer_1" x="0px" y="0px" version="1.1" viewBox="0 0 32 32"><style>.st0{fill:#fff}</style><path d="M18.64 15.26 7.37 3.79l-.7.71 11.48 11.7c.11-.34.28-.65.49-.94" class="st0"/><path d="M28.07 12.72c-2.86-2.91-6.47-4.29-9.48-3.94L11.23 1.3a.99.99 0 0 0-1.42 0l-.34.35 12.02 12.23c1.28.01 2.67.57 3.77 1.7 1.94 1.97 2.25 4.85.7 6.43s-4.38 1.26-6.32-.71c-1.1-1.12-1.66-2.54-1.67-3.84L6.67 5.94a.99.99 0 0 0-1.42 0l-.34.35-1.4-1.43-.7.71L4.21 7l-.7.71-1.4-1.43L1.4 7l1.4 1.43-.7.71L.7 7.72l-.7.71 1.4 1.43-.7.71c.78.79 2.03.79 2.81 0l2.81-2.86 6.65 6.77c-.34 3.06 1.02 6.75 3.87 9.65 4.26 4.34 10.23 5.3 13.33 2.14s2.16-9.21-2.1-13.55" class="st0"/><path d="M20.26 14.05 8.77 2.36l-.7.71 11.27 11.47c.28-.2.59-.38.92-.49m-4.12 10.81c-2.85-2.9-4.4-6.6-4.2-9.98l-.65-.66-4.27-4.36-.7-.71-.7.71-1.4 1.43c-.53.54-1.22.82-1.92.87.78.62 1.9.58 2.62-.15l1.4-1.43 4.46 4.54c-1.56 3.34-.34 8.22 3.26 11.88 4.26 4.34 10.23 5.3 13.33 2.14.09-.09.16-.19.24-.29-3.52.93-8.03-.5-11.47-3.99M29.41 24 28 25.41A.996.996 0 1 1 26.59 24L28 22.59A.996.996 0 1 1 29.41 24" class="st0"/></svg>