<?xml version="1.0" encoding="utf-8"?>
<!-- Generator: Adobe Illustrator 19.2.1, SVG Export Plug-In . SVG Version: 6.00 Build 0)  -->
<svg version="1.1" id="Layer_1" xmlns="http://www.w3.org/2000/svg" xmlns:xlink="http://www.w3.org/1999/xlink" x="0px" y="0px"
	 viewBox="0 0 32 32" style="enable-background:new 0 0 32 32;" xml:space="preserve">
<style type="text/css">
	.st0{fill:#FFFFFF;}
	.st1{fill-rule:evenodd;clip-rule:evenodd;fill:#FFFFFF;}
</style>
<g>
	<g id="XMLID_222_">
		<circle class="st0" cx="16" cy="9.5" r="1.5"/>
	</g>
	<g id="XMLID_221_">
		<path class="st0" d="M13,10c0,0-3.717-0.075,2-3V6c0,0-2.892-0.499-5-2c0,0,0.561,1.5,2,2c0,0-9.635,5,1,5V10z"/>
	</g>
	<g id="XMLID_220_">
		<path class="st0" d="M19,10c0,0,3.717-0.075-2-3V6c0,0,2.892-0.499,5-2c0,0-0.561,1.5-2,2c0,0,9.635,5-1,5V10z"/>
	</g>
	<g>
		<path class="st0" d="M30,15l-1.5,1.5c-0.276,0.276-0.276,0.724,0,1s0.724,0.276,1,0L30,17l1,1l-0.87,1l0,0h-1.471l0,0l-1.42-1.552
			C22.898,12.1,17.312,12.021,16,12c-1.271,0-6.898,0.048-11.238,5.396L3.342,19l0,0H2l0,0l-1-1l1-1l0.5,0.5
			c0.276,0.276,0.724,0.276,1,0c0.276-0.276,0.276-0.724,0-1L2,15l-2,2.027v0V19v0c0,0,5.915,9,16,9s16-9,16-9l0,0v-2v0L30,15z
			 M8.001,22.999L5,20.001l3.002-3c-0.274,0.487-0.535,1.07-0.66,1.625C6.985,20.227,7.277,21.753,8.001,22.999z M21.847,21.373
			c-0.492,2.203-2.268,3.979-4.466,4.472c-4.372,0.981-8.203-2.849-7.227-7.22c0.492-2.203,2.268-3.977,4.466-4.47
			C18.992,13.174,22.822,17.001,21.847,21.373z M23.998,22.999c0.274-0.487,0.535-1.07,0.66-1.625
			c0.358-1.601,0.066-3.127-0.658-4.373L27,19.999L23.998,22.999z"/>
	</g>
	<g>
		<path class="st0" d="M16,16c-2.206,0-4,1.794-4,3.999C12,22.206,13.794,24,16,24s4-1.794,4-4.001C20,17.794,18.206,16,16,16z
			 M16,21c-0.552,0-1-0.448-1-1c0-0.552,0.448-1,1-1s1,0.448,1,1C17,20.552,16.552,21,16,21z"/>
	</g>
</g>
</svg>
