<svg xmlns="http://www.w3.org/2000/svg" xml:space="preserve" id="Layer_1" x="0px" y="0px" version="1.1" viewBox="0 0 32 32"><style>.st0{fill:#fff}</style><path d="M13.7 17c.4 1.3.8 2.7 1.2 4 .9-1 1.8-2.2 2.6-3.2-1.2-.2-2.5-.5-3.8-.8M8.5 0h-.2C2.9.8.1 6.1 0 6.3l.5.7c4-.3 9.2 1.3 11.8 2.3l.8-.8c1.2-1 2.7-1.9 4.3-2.5.3 0 .6-.1.9-.2.4-.1.7-.2 1.1-.3C15.3 1.5 8.8.1 8.5 0m-.1 1c.4.1 1.9.5 3.8 1.2-.3.1-.6.3-1 .5-.7-.3-2.4-1-4.3-1.4zM5.2 2.2c1.8 0 3.8.7 4.9 1.2-.2.1-.4.3-.7.4-.5-.2-2.6-.9-5.1-1zm-2 1.6c2.3-.2 4.3.4 5.3.7l-.7.7c-.7-.2-2.4-.8-5.2-.8zm3.3 2.8C4.8 6.3 3.1 6 1.4 6c.1-.2.3-.4.4-.6 2.6-.1 4.4.3 5.2.6-.1.2-.3.4-.5.6m2.2.7c-.3 0-.7-.1-1-.2 1.7-2.3 4.3-3.8 5.7-4.5.4.2.8.3 1.3.5-.9.4-4 1.8-6 4.2" class="st0"/><path d="M29.2 7.6c-2.7-1.9-7.5-2.2-11.5-.7-4.2 1.6-7 4.7-8 8.9-.7 3-2.1 5.1-4 6.2-2.5 1.4-5.1.6-5.1.6l-.6.8S6.6 32 15.8 32h.3c1.5 0 3-.2 4.7-.7l.3-.3c.1-.2.9-4.1.9-8.9 0-2.6-.1-4.5.1-5.4.5-3 3.1-5.3 6.2-5.3h.7c.3 0 .5.3.4.6 0 .3-.3.5-.6.4h-.6c-2.8 0-5.1 2.2-5.2 5 .9.6 2 .9 3.2.9 3.2 0 5.8-2.6 5.8-5.8 0-1.9-1-3.6-2.8-4.9M13.7 17c.9-1 1.7-2.1 2.6-3.1.4 1.3.8 2.6 1.2 3.8s.8 2.4 1.2 3.5c-1.2.1-2.5 0-3.8-.3s-2.6-.8-3.8-1.3c.9-.7 1.8-1.6 2.6-2.6M9 20c4.8 3.5 10 3.4 12 3.2v1c-.5 0-1.1.1-1.8.1-2.7 0-6.8-.6-10.8-3.4q.45-.45.6-.9m-7.3 3.8c1.1.1 2.8 0 4.5-1 .6-.4 1.2-.8 1.7-1.3.2.1.4.3.5.4-.5.7-1.9 2.5-5.3 3.3zM4 26c3.2-.9 4.7-2.7 5.2-3.5.2.1.5.3.7.4-.5.9-2.1 3.1-4.5 4.2-.5-.4-.9-.7-1.4-1.1m3.8 2.6-1.5-.9c2.5-1.2 4-3.5 4.5-4.4.2.1.5.2.7.3-.4.9-1.5 3.2-3.7 5m2.4 1.2c-.5-.2-1-.4-1.5-.7 2.2-2 3.3-4.2 3.7-5.1l.9.3c-.3 1-1.4 3.8-3.1 5.5m2.7.8c-.6-.1-1.2-.3-1.8-.5 1.7-1.9 2.7-4.6 3-5.6.3.1.6.1.9.2-.1.9-.6 3.6-2.1 5.9m2.7.4c-.5 0-1.1-.1-1.6-.1 1.4-2.4 1.9-5.1 2.1-5.9.3 0 .6.1.9.1-.1 1-.4 3.7-1.4 5.9m2.5-.1c-.5.1-.9.1-1.4.1.9-2.3 1.2-4.8 1.3-5.8h1.1c-.1.9-.3 3-1 5.7m2.1-.5c-.4.1-.7.2-1.1.3.7-2.6.9-4.7.9-5.6.4 0 .7-.1.9-.1 0 2.6-.5 4.7-.7 5.4" class="st0"/></svg>