<svg xmlns="http://www.w3.org/2000/svg" xml:space="preserve" id="Layer_1" x="0px" y="0px" version="1.1" viewBox="0 0 32 32"><style>.st0{fill:#fff}</style><path d="M23.814 1.75c1.279 1.56 1.452 3.798.596 5.839 2.037-.853 4.272-.682 5.832.591a7.99 7.99 0 0 0-6.428-6.43m3.168 3.268c-.501-.501-.704-1.11-.453-1.36s.86-.047 1.361.454.704 1.11.454 1.361-.861.046-1.362-.455m4.63 4.985A5.1 5.1 0 0 0 32 8.03c0-2.152-1.26-3.894-2.848-4.031a8.08 8.08 0 0 1 1.825 4.923c.262.333.47.697.635 1.081m-8.575-8.982a8.07 8.07 0 0 1 4.871 1.756C27.725 1.223 26.005 0 23.886 0c-.702 0-1.36.135-1.935.371.393.166.751.391 1.086.65" class="st0"/><path d="M22.784 2.116C21.002.334 17.79.655 15.612 2.833s-2.5 5.39-.717 7.172 4.994 1.461 7.172-.717 2.5-5.39.717-7.172m-5.04 6.044-1.793-1.793.897-2.69 2.69-.897 1.793 1.793-.897 2.69z" class="st0"/><path d="m20.254 4.933-1.076-1.076-1.614.538-.538 1.613 1.076 1.076 1.614-.538zm9.63 4.283c-1.782-1.782-4.994-1.461-7.172.717s-2.5 5.39-.717 7.172 4.994 1.461 7.172-.717 2.5-5.39.717-7.172m-1.901 1.703a.988.988 0 0 1 0 1.976h-.988v-.988c0-.546.442-.988.988-.988m-3.894.988a.988.988 0 1 1 1.976 0v.988h-.988a.99.99 0 0 1-.988-.988m.987 3.894a.988.988 0 0 1 0-1.976h.988v.988a.99.99 0 0 1-.988.988m1.919-.988v-.988h.988a.988.988 0 1 1-.988.988M0 28.707V32h3.293z" class="st0"/><path d="M20.371 11.629c-2.099.88-4.404.671-5.968-.708l.539 2.091a1.2 1.2 0 0 0-.56.303c-.396.396-.441 1.083-.045 1.479l.098.098-9.905 10.9c-.396-.276-.913-.279-1.266.075-.377.377-.372.959-.033 1.357L2.527 28H.707L4 31.293v-1.82l.787-.715c.398.34.992.333 1.368-.044.353-.353.328-.848.052-1.243l10.9-9.905.098.098c.396.396 1.083.351 1.479-.045.146-.146.242-.35.28-.537l2.114.517c-1.378-1.566-1.585-3.873-.707-5.97" class="st0"/></svg>