<svg xmlns="http://www.w3.org/2000/svg" xml:space="preserve" id="Layer_1" x="0px" y="0px" version="1.1" viewBox="-289 381 32 32"><style>.st0{fill:#fff}</style><path d="m-272.1 406.9 1-.1-.3 2.1zm3.8-.9.3 2.1-1.2-1.7zm2.7.4-1.6-1.3.8-.6zm-1.8-3.9c-.5.5-1 .9-1.5 1.3.2.3.4.6.7.9-.1 0-.2.1-.2.1-.2-.3-.4-.7-.5-1-.6.3-1.2.6-1.8.8.1.3.2.7.4 1h-.2c-.1-.3-.2-.7-.2-1-.7.1-1.3.2-2 .3 0 .3 0 .7.1 1h-.3c0-.3 0-.7.1-1-.7 0-1.3-.1-2-.3-.1.3-.1.6-.2.9-.1 0-.2 0-.2-.1l.3-.9c-.6-.2-1.2-.5-1.8-.8-.1.3-.3.5-.4.8-.1 0-.1-.1-.2-.1.2-.3.4-.5.5-.8-.5-.4-1.1-.8-1.5-1.3l-4.4 4.5c1.8 3.6 5.7 5.9 10 6 4.4.1 8.2-2.4 10-6zm-7.3 6.3-.2-2.1 1 .1zm-1.8-2.4-1.3 1.6.4-2zm-3-1.9.8.6-1.7 1.2zm6.5-23.5-1 6 1 2 1-2zm-7.8 3 3.5 4.9 2.1.7-.7-2.1zm15.6 0-3.5 4.9-2.1.7.7-2.1zm-7.8 6c-1.1 0-2 .9-2 2s.9 2 2 2 2-.9 2-2-.9-2-2-2m0 3c-.6 0-1-.4-1-1s.4-1 1-1 1 .4 1 1-.4 1-1 1" class="st0"/><path d="M-270.1 391.4c0 .2.1.4.1.6v.5c2 .7 3.6 2.1 4.4 3.8l-3.9.6c0-.2-.2-.4-.5-.4s-.5.2-.5.5h-5c0-.3-.2-.5-.5-.5-.2 0-.4.2-.5.4l-3.9-.6c.8-1.7 2.4-3.1 4.4-3.8 0-.2-.1-.3-.1-.5s0-.4.1-.6c-4.6 1.3-8.1 5.5-8.1 10.6 0 1.4.3 2.7.7 3.9l3.3-3.4c-.7-1-1-2.2-1-3.5v-.2c1.5-.2 3-.5 4.5-.7 0 .2.2.4.5.4s.5-.2.5-.5h5c0 .3.2.5.5.5.2 0 .4-.2.5-.4 1.5.2 3 .5 4.5.7v.2c0 1.3-.4 2.4-1.1 3.5l3.3 3.4c.5-1.2.7-2.5.7-3.9.2-5.1-3.2-9.3-7.9-10.6m-9.4 6.6c-.3 0-.5-.2-.5-.5s.2-.5.5-.5.5.2.5.5-.2.5-.5.5m13 0c-.3 0-.5-.2-.5-.5s.2-.5.5-.5.5.2.5.5-.2.5-.5.5" class="st0"/></svg>