<?xml version="1.0" encoding="utf-8"?>
<!-- Generator: Adobe Illustrator 19.2.1, SVG Export Plug-In . SVG Version: 6.00 Build 0)  -->
<svg version="1.1" id="Layer_1" xmlns="http://www.w3.org/2000/svg" xmlns:xlink="http://www.w3.org/1999/xlink" x="0px" y="0px"
	 viewBox="0 0 32 32" style="enable-background:new 0 0 32 32;" xml:space="preserve">
<style type="text/css">
	.st0{fill:#FFFFFF;}
	.st1{fill-rule:evenodd;clip-rule:evenodd;fill:#FFFFFF;}
</style>
<g id="Skyward_Sword_3_">
	<g id="XMLID_197_">
		<path class="st0" d="M26.618,12.906l-0.162-2.232c0.453-0.303,0.72-0.592,0.72-0.592c-1.898,0.274-3.819-1.439-3.819-1.439
			s-1.712-1.921-1.439-3.819c0,0-0.289,0.267-0.592,0.72l-2.232-0.162l-2.423,0.542l2.704,1.785l1.278-0.388
			c-0.081,0.849,0.172,1.839,1.18,2.846c1.008,1.008,1.997,1.261,2.846,1.18l-0.388,1.278l1.785,2.704L26.618,12.906z"/>
	</g>
	<g id="XMLID_196_">
		<path class="st0" d="M24.144,7.893c-0.01-0.011,0.717,0.621,1.678,1.014l0.294-0.158l0.291-0.291l-0.333-1.291l4.721-4.721
			l0.778,0.162C31.222,2.018,32,0.641,32,0.641l-0.321-0.321L31.359,0c0,0-1.377,0.778-1.967,0.428l0.162,0.778l-4.721,4.721
			l-1.291-0.333l-0.291,0.291l-0.158,0.293C23.49,7.143,24.132,7.879,24.144,7.893z"/>
	</g>
	<g id="XMLID_193_">
		<path class="st0" d="M22.29,11.816c-0.415-0.218-0.817-0.516-1.203-0.902c-0.386-0.386-0.685-0.788-0.902-1.203l-1.439,1.439
			l-1.24-0.196l-0.678,0.678l-0.077,1.071L1.597,28.132c0,0-1.204,2.211-1.597,3.868c1.657-0.392,3.868-1.597,3.868-1.597
			L19.297,15.25l1.071-0.077l0.678-0.678l-0.196-1.24L22.29,11.816z M20.235,14.138l-1.617,0.431L17,15l0.431-1.617l1.186,1.186
			l0.431-1.617l-1.617,0.431l0.431-1.617l1.186,1.186L20.235,14.138z"/>
	</g>
</g>
</svg>
