<svg xmlns="http://www.w3.org/2000/svg" xml:space="preserve" id="Layer_1" x="0px" y="0px" version="1.1" viewBox="0 0 32 32"><style>.st0{fill:#fff}</style><path id="XMLID_203_" d="M12 12h8l-4 7z" class="st0"/><path d="M16 0C7.164 0 0 7.164 0 16s7.164 16 16 16 16-7.164 16-16S24.837 0 16 0m0 30C8.28 30 2 23.72 2 16S8.28 2 16 2s14 6.28 14 14-6.28 14-14 14" class="st0"/><path d="m27.185 9.408-5.377 2.689A6.96 6.96 0 0 1 23 16c0 3.1-2.027 5.731-4.824 6.649L19 21h-6l.828 1.651C11.029 21.735 9 19.101 9 16c0-1.444.44-2.788 1.193-3.904L4.815 9.408A12.9 12.9 0 0 0 3 16l.001.018 2.252-.732a14.33 14.33 0 0 0 2.472 7.608l-2.235.726A13.03 13.03 0 0 0 12 28.363v-2.364c2.613.759 5.387.759 8 0v2.364a13.04 13.04 0 0 0 6.509-4.743l-2.235-.726a14.34 14.34 0 0 0 2.473-7.608c.751.244 1.253.488 2.253.732V16c0-2.408-.67-4.657-1.815-6.592" class="st0"/></svg>