<svg xmlns="http://www.w3.org/2000/svg" xml:space="preserve" x="0px" y="0px" viewBox="0 0 32 32"><path d="M26.53 17.75C27.47 16.05 28 14.09 28 12c0-6.63-5.37-12-12-12S4 5.37 4 12c0 2.09.53 4.05 1.47 5.75l-4.22 2.71c2.41 4.17 6.54 7.24 11.42 8.21L16 32l3.33-3.33c4.88-.97 9.01-4.04 11.42-8.21zM12.76 4.5h.95C14.1 3.62 14.98 3 16 3s1.9.62 2.29 1.5h.95C21.32 4.5 23 6.18 23 8.26c-.72-.48-1.58-.76-2.5-.76-2.14 0-3.92 1.5-4.38 3.5h-.24c-.46-2-2.24-3.5-4.38-3.5-.92 0-1.78.28-2.5.76 0-2.08 1.68-3.76 3.76-3.76M23 12a2.5 2.5 0 0 1-5 0 2.5 2.5 0 0 1 5 0M11.5 9.5a2.5 2.5 0 0 1 0 5 2.5 2.5 0 0 1 0-5M2.89 21.15c1.08-.78 2.15-1.56 3.23-2.34.72 1.04 1.61 1.96 2.61 2.73-.79 1.07-1.57 2.14-2.36 3.22-1.33-1.01-2.5-2.22-3.48-3.61m9.21 6.35c-1.56-.39-3.03-1.01-4.39-1.84.68-1.15 1.35-2.29 2.03-3.44 1.01.62 2.13 1.1 3.31 1.4-.31 1.29-.63 2.58-.95 3.88m6.29.7L16 30.5l-2.39-2.3-.02-.02.63-4.32c.58.08 1.17.14 1.78.14s1.2-.06 1.78-.15l.63 4.32zM16 20.5s-1.99-.86-2.42-2h-.53c-1.13 0-2.05-.98-2.05-2.18.17.02.33.05.5.05h.02c.98-.01 1.8-.67 2.23-1.52.4-.8 1.26-1.36 2.24-1.36s1.84.55 2.24 1.36c.43.85 1.25 1.51 2.23 1.52h.02c.17 0 .33-.03.5-.05 0 1.2-.92 2.18-2.05 2.18h-.53c-.41 1.14-2.4 2-2.4 2m3.9 7c-.32-1.29-.63-2.58-.95-3.88 1.18-.3 2.3-.77 3.31-1.4.68 1.15 1.35 2.29 2.03 3.44a16.3 16.3 0 0 1-4.39 1.84m5.73-2.75c-.79-1.07-1.57-2.14-2.36-3.22 1.01-.77 1.89-1.69 2.61-2.73 1.08.78 2.15 1.56 3.23 2.34-.98 1.4-2.15 2.61-3.48 3.61" style="fill:#fff"/></svg>