<svg xmlns="http://www.w3.org/2000/svg" xml:space="preserve" x="0px" y="0px" viewBox="0 0 32 32"><path d="M24.67 28.44c-.06.35-.28.67-.59.91-.39.3-.87.5-1.31.74-.58.32-1.09.7-1.59 1.08-.32.24-.64.49-1.05.63-.81.26-1.8-.04-2.28-.62-1-1.23-.01-2.77-.16-4.1-.02-.22-.08-.44-.03-.65.09-.36.46-.64.88-.77s.88-.16 1.34-.15c.74 0 1.55.08 2.04.52.35.32.45.79.8 1.11.26.24.66.39 1.06.39.17 0 .34-.02.5.01.07.01.12.04.17.07.27.16.27.6.22.83m-8.01-.45c.03-.9-.36-1.87-1-2.58-.39-.44-.93-.82-1.5-1.11-.61-.31-1.22-.67-1.91-.85-.27-.07-.55-.1-.83-.11-.07 0-.71.07-.73.02.28.53.58 1.06.7 1.63.12.6-.05 1.22-.29 1.79-.02.06-.06.12-.13.13-.05.01-.11 0-.16-.04a.3.3 0 0 1-.09-.12c-.26-.49-.31-1.04-.43-1.56-.1-.42-.21-.92-.56-1.26-.44-.42-1.25-.34-1.79-.63a.4.4 0 0 1-.12-.1c-.03-.07 0-.14.04-.21.32-.61.58-1.28.5-1.96-.11-.86-.72-1.53-1.32-2.21-.08-.1-.17-.2-.2-.31-.05-.22.13-.43.32-.6s.41-.33.46-.55c.05-.21-.07-.43-.24-.6s-.39-.3-.58-.46c-.2-.16-.38-.34-.52-.54a.46.46 0 0 1-.1-.24c.01-.18.23-.28.4-.4.37-.25.56-.65.49-1.03-.11-.61-.95-1.02-1.51-1.36-.71-.44-1.46-.83-2.24-1.18-.22-.1-.47-.19-.7-.12.53.49 1.06.99 1.59 1.48.46.43.75.94.44 1.5-.16.28-.4.53-.58.81-.26.4-.36.87-.26 1.32.23.94 1.34 1.63 1.54 2.58.1.45-.03.92-.26 1.34s-.56.8-.9 1.18c-.08.09-.16.18-.17.29 0 .07.03.14.06.2.29.56.92.85 1.35 1.32.92 1.01-.26 2.6 1.11 3.43.26.16.57.26.86.38.11.05.23.1.31.18.11.13.1.29.1.43 0 .17.04.31.11.46.16.35.44.66.74.94.46.43 1.02.84 1.64 1.12.02.01.07.04.1.04.71-.03-.28-1.21 2.18-.06 1.55.75-.28 1 .7 1.19 1.78.03 2.67-1.42 3.12-2.58.06-.15.11-.29.15-.44.07-.15.1-.35.11-.55m-6.83-6.68c.2.59 1.36.52 2.07.6.95.11 1.89.23 2.84.35 1.89.24 3.77.51 5.65.79.91.14 1.9.32 2.49.87.41.38.57.89.92 1.31s1.06.75 1.62.51c.26-.11.42-.32.54-.53 1.02-1.69.37-3.83 1.73-5.37.55-.62 1.42-1.16 1.42-1.91.01-.77-.96-1.45-.76-2.21.18-.68 1.26-1.23.95-1.89-.09-.19-.28-.33-.44-.49-.85-.82-.89-1.94-1.07-2.98-.19-1.03-.73-2.19-2-2.54.65 1.27.77 2.69.34 4.01-.17.54-.44 1.08-.35 1.63.15.88 1.19 1.68.86 2.54-.28.71-1.43 1.08-1.63 1.81-.1.35.06.72.12 1.08s-.01.78-.4.98c-.46.23-1.09.02-1.47-.29-.8-.66-.93-1.74-.31-2.5.36-.44.93-.77 1.19-1.24.37-.68.02-1.45-.29-2.15-.48-1.05-.88-2.22-.33-3.25.3-.56.88-1.05.91-1.66.05-1.06-1.54-1.72-1.99-2.72-.45-1.01.27-2.3-.67-3.08-.18 1-1.47 1.79-1.38 2.79.05.58.57 1.1.57 1.68 0 .65-.66 1.24-.61 1.89.08.93 1.59 1.64 1.31 2.55-.15.5-.79.8-1.12 1.25-.64.87.08 1.95.16 2.95.04.53-.19 1.14-.82 1.35-.83.27-1.76-.38-1.85-1.07s.35-1.34.78-1.95.86-1.27.73-1.96c-.13-.64-.73-1.16-1.14-1.72-.75-1.02-.89-2.29-.37-3.39.3-.64.81-1.34.44-1.96-.15-.25-.43-.45-.58-.7-.19-.34-.1-.73-.09-1.1.06-1.5-1.24-2.98-3.08-3.48-.05 1.14 1.19 2.14 1.15 3.28-.03.9-.86 1.69-.92 2.59-.09 1.43 1.74 2.65 1.5 4.07-.14.86-1.04 1.58-1.09 2.45-.04.72.5 1.37.73 2.06.3.92 0 1.94-.78 2.68-.22.21-.56.42-.9.34a.8.8 0 0 1-.34-.18c-.7-.56-.7-1.44-.54-2.2.16-.77.43-1.56.11-2.3-.22-.52-.73-.97-.79-1.52-.07-.6.41-1.14.54-1.73.16-.76-.28-1.5-.64-2.22-.87-1.75-1.31-3.62-1.26-5.49-.95.46-.99 1.5-.91 2.36.07.84.14 1.69-.14 2.5-.28.8-.9 1.62-.53 2.4.33.68 1.37 1.16 1.31 1.88-.04.49-.58.85-.92 1.26-.67.83-.38 1.65.17 2.44.47.68 1.2 1.74.49 2.46-.41.42-.89.81-.97 1.34-.01.01-.46 1.85-.16 2.73" style="fill:#fff"/></svg>