<svg xmlns="http://www.w3.org/2000/svg" xml:space="preserve" id="Layer_1" x="0px" y="0px" version="1.1" viewBox="0 0 32 32"><style>.st1{fill-rule:evenodd;clip-rule:evenodd;fill:#fff}</style><ellipse id="XMLID_226_" cx="3.5" cy="30.498" class="st1" rx="0.5" ry="0.502"/><circle cx="11.5" cy="24.5" r="1" class="st1"/><circle cx="4" cy="21" r="1.5" class="st1"/><path d="M31.788.209a.713.713 0 0 0-1.009 0L10 21c-.667 0-.951-.351-1.075-.637a3 3 0 0 0-.095-.343L8.828 20l-.002.005a3 3 0 0 0-2.321-1.954L6.5 18c0-.87.628-1.602 1.5-1.878A2.5 2.5 0 0 0 7.25 16C6.007 16 5 16.895 5 18c0 .063.015.123.021.185a3 3 0 0 0-1.263.839C3.839 19.015 3.917 19 4 19c1.103 0 2 .897 2 2s-.897 2-2 2c-.083 0-.161-.015-.242-.024A2.98 2.98 0 0 0 6 24c.343 0 .667-.07.975-.176L2.304 28.03s-.2-.031-.304-.031c-.351 0-.677.099-.964.258A1 1 0 0 1 1 28c0-.366.206-.673.5-.847A1 1 0 0 0 1 27a1 1 0 0 0-1 1c0 .33.17.608.417.791A1.98 1.98 0 0 0 0 30a2 2 0 0 0 2.812 1.825A1.5 1.5 0 0 1 2 30.498c0-.828.673-1.502 1.5-1.502.34 0 .65.118.902.31l4.612-5.173A1.993 1.993 0 0 0 11 26c.086 0 .167-.015.25-.025A1.5 1.5 0 0 1 10 24.5c0-.827.673-1.5 1.5-1.5.742 0 1.355.542 1.475 1.25.01-.083.025-.164.025-.25a1 1 0 0 0 1-1 1 1 0 0 0-.153-.5.99.99 0 0 1-.847.5.9.9 0 0 1-.308-.057 2 2 0 0 0-1.669-.94C14.96 18.063 29.16 3.855 31.795 1.214a.71.71 0 0 0-.007-1.005" class="st1"/></svg>