<svg xmlns="http://www.w3.org/2000/svg" xml:space="preserve" id="Layer_1" x="0px" y="0px" version="1.1" viewBox="0 0 32 32"><style>.st0{fill:#fff}</style><path id="XMLID_190_" d="M18.5 11h-5L16 7z" class="st0"/><path id="XMLID_30_" d="M16 15h-5l2.5-4z" class="st0"/><path id="XMLID_11_" d="M21 15h-5l2.5-4z" class="st0"/><path d="M21 17H11l5 8zm-2 1-1 1.75L17 18zm-4 0-1 1.75L13 18zm1 .25L17 20h-2zm0 4.5L15 21h2z" class="st0"/><path d="M8 5v22h16V5zm15 21H9V6h14z" class="st0"/><path d="M27 26.184V5.816A2.99 2.99 0 0 0 29 3a3 3 0 0 0-3-3 2.99 2.99 0 0 0-2.816 2H8.816A2.99 2.99 0 0 0 6 0a3 3 0 0 0-3 3 2.99 2.99 0 0 0 2 2.816v20.367A2.993 2.993 0 0 0 6 32a2.99 2.99 0 0 0 2.816-2h14.367a2.99 2.99 0 0 0 2.816 2 3 3 0 0 0 3-3A2.99 2.99 0 0 0 27 26.184M25 5.816V28H7V4h18z" class="st0"/></svg>