<svg xmlns="http://www.w3.org/2000/svg" xml:space="preserve" x="0px" y="0px" viewBox="0 0 32 32"><path d="M26.5 14.5c-.55 0-1-.9-1-2 0-.13.01-.26.02-.38-.31-.37-.52-.95-.52-1.62 0-1.1.56-2 1.25-2 .13 0 .24.04.36.09-.89-2.58-2.4-4.77-4.3-6.29.12.36.19.76.19 1.2 0 1.38-.67 2.5-1.5 2.5s-1.5-1.12-1.5-2.5c2.17.02 0-3.5-3.5-3.5.88.27 2 1.32 2 2.5 0 1.38-.9 2.5-2 2.5s-2-1.12-2-2.5c0-.31.05-.61.13-.88-2.09.43-3.98 1.68-5.43 3.52.29-.14.57-.18.8-.09.62.24.67 1.31.12 2.39-.55 1.07-1.5 1.75-2.12 1.51-.3-.12-.47-.44-.5-.87q-.33.825-.57 1.71c-.09.34-.39.56-.72.56-.06 0-.13-.01-.19-.03a.74.74 0 0 1-.5-.47c-.34 1.31-.52 2.71-.52 4.15 0 1.06.12 2.09.31 3.08.11-.53.37-.94.75-1.05.64-.19 1.37.53 1.61 1.62.25 1.09-.08 2.13-.72 2.32-.32.1-.66-.04-.95-.32.17.46.35.92.56 1.36 1.65.01 3.13.7 4.21 1.79.32-.68.73-1.29 1.23-1.8-.22.65-.28 1.32-.28 1.96.17-.14.36-.26.56-.35l1.44-.96c.82-.55 1.78-.84 2.77-.84s1.95.29 2.78.84l1.44.96c.2.09.39.21.56.35 0-.65-.06-1.31-.28-1.96.5.51.91 1.12 1.24 1.79.87-.88 2-1.49 3.26-1.7V21c0-1.1.45-2 1-2 .23 0 .43.16.6.41.58-1.66.9-3.49.9-5.41 0-.33-.02-.65-.04-.97-.11.85-.49 1.47-.95 1.47m-11.27-3.49c.18-.82.38-1.64.67-2.46.01-.04.07-.06.12-.05.04.01.06.03.07.05.29.82.49 1.64.67 2.46.08.41.33.82.19 1.23-.13.41-.33.82-.86 1.23-.05.04-.13.04-.19 0-.53-.41-.73-.82-.86-1.23-.14-.41.11-.82.19-1.23M11 17.5c-.83 0-1.5-.67-1.5-1.5s.67-1.5 1.5-1.5 1.5.67 1.5 1.5-.67 1.5-1.5 1.5m2.62-6.39c-.05.41.05.85-.14 1.23-.18.38-.4.76-.86 1.14-.05.03-.11.03-.15-.02-.36-.47-.45-.93-.47-1.39s.27-.85.46-1.26c.38-.81.83-1.59 1.41-2.29.02-.02.05-.03.07-.03.04.01.07.04.06.09-.15.87-.3 1.7-.38 2.53m4.34 8.14c-.63-.25-1.3-.36-1.96-.34-.66-.02-1.32.09-1.96.34-.01-.04-.03-.07-.04-.11.17-.52.48-.84.84-1.06.35-.23.76-.32 1.16-.33.4.02.81.1 1.16.34.35.22.67.54.84 1.06-.01.03-.03.06-.04.1m0-2c-.63-.25-1.3-.36-1.96-.34-.66-.02-1.32.09-1.96.34-.01-.04-.03-.07-.04-.11.17-.52.48-.84.84-1.06.35-.23.76-.32 1.16-.33.4.02.81.1 1.16.34.35.22.67.54.84 1.06-.01.03-.03.06-.04.1m1.43-3.77q-.015 0 0 0c-.46-.38-.68-.76-.86-1.14-.19-.38-.09-.81-.14-1.23-.09-.83-.24-1.66-.39-2.52-.01-.04.02-.08.06-.09.03 0 .06.01.07.03.58.7 1.03 1.47 1.41 2.29.18.41.48.8.46 1.26-.01.45-.1.92-.47 1.39-.03.04-.1.04-.14.01M21 17.5c-.83 0-1.5-.67-1.5-1.5s.67-1.5 1.5-1.5 1.5.67 1.5 1.5-.67 1.5-1.5 1.5M11 27c0 2.76-2.24 5-5 5-2.32 0-4.25-1.59-4.82-3.73C.44 26.28 0 23.06 0 17.93 0 12.11 3.21 6.54 6.56 4 4.66 6.63 3.5 10.25 3.5 14c0 2.97.74 5.72 1.99 8.05.01 0 1.08 1.92 2.27 3.09-.59-1-1.04-2.04-1.38-3.11C8.96 22.23 11 24.37 11 27m14.63-4.96c-.35 1.06-.8 2.11-1.38 3.11 1.19-1.17 2.26-3.09 2.27-3.09 1.25-2.33 1.99-5.08 1.99-8.05 0-3.75-1.16-7.37-3.06-10C28.79 6.54 32 12.11 32 17.93c0 5.13-.44 8.35-1.18 10.34C30.25 30.41 28.32 32 26 32c-2.76 0-5-2.24-5-5 0-2.63 2.04-4.77 4.63-4.96m-4.96 2.22c-.22-.34-.54-.61-.93-.76l-1.52-1.02c-1.34-.9-3.1-.9-4.44 0l-1.52 1.02c-.39.16-.71.43-.93.76a5.93 5.93 0 0 1 .25 4.93c.13.13.28.24.45.32.6.3 1.31.26 1.87-.12l.43-.29a3.01 3.01 0 0 1 3.33 0l.43.29c.56.37 1.27.42 1.87.12.17-.08.32-.2.45-.32A6.1 6.1 0 0 1 20 27c0-.99.24-1.92.67-2.74m-5.42 1.94c0 .58-.5 1.05-1.12 1.05h-.26c-.87 0-1.41-.89-.96-1.58l.26-.41c.58-.91 2.08-.52 2.08.54zm2.88 1.05h-.26c-.62 0-1.12-.47-1.12-1.05v-.4c0-1.06 1.49-1.45 2.08-.54l.26.41c.45.69-.09 1.58-.96 1.58" style="fill:#fff"/></svg>