<svg xmlns="http://www.w3.org/2000/svg" xml:space="preserve" x="0px" y="0px" viewBox="0 0 64 64"><path d="M64 32.9c0 .5-.4.8-.8.8H49.4c-.1 4.6-2.2 9-5.5 12-1 1.3-3.2.3-2.7-1.3.1-.5.4-.8.7-1.1 1-.9 1.9-1.9 2.6-3.1 1.2-1.8 1.9-4 2.2-6.2-1 .1-1.9.1-2.8.3-1.5.3-3.1.6-4.5 1.1-2.7.9-4.4 2.9-5.2 5.7-.7 2.3-1 4.7-1.1 7.1v.1h-.2v14.8c0 .4-.4.8-.8.8s-.8-.4-.8-.8V48.3h-.2v-.1c-.2-2.4-.4-4.8-1.1-7.1-.8-2.7-2.5-4.7-5.2-5.7-1.5-.5-3-.8-4.5-1.1-.9-.2-1.8-.2-2.7-.3.4 3.1 1.7 6 3.7 8.3v.1c.6.7-.1 1.9-1 2-.3 0-.4-.1-.6-.3-.7-.6-1.2-1.3-1.7-2.1-1.5-2.4-2.3-5.3-2.3-8.2H.8c-.4 0-.8-.4-.8-.8s.4-.8.8-.8h14.9c.2-2.4.8-4.7 1.9-6.8.4-.8 1.3-.8 1.2.2-.1.3-.2.5-.3.8-.8 1.7-1.2 3.6-1.2 5.5 1-.1 1.9-.1 2.9-.3 1.5-.3 3.1-.6 4.5-1.1 2.7-.9 4.4-2.9 5.2-5.7.7-2.3 1-4.7 1.1-7.1v-.1h.2c-1.5.1-2.9.4-4.3.9-.3.1-.5.2-.8.2-.7 0-.6-.7 0-1q2.55-1.05 5.1-1.2V.8c0-.4.4-.8.8-.8.5 0 .8.4.8.8v15.6c8.3.3 16.1 6.9 16.6 15.7v.1h13.8c.4-.1.8.3.8.7M32.8 17.5h.2v.1c.2 2.4.4 4.8 1.1 7.1.8 2.7 2.5 4.7 5.2 5.7 1.5.5 3 .8 4.5 1.1.9.2 1.9.2 2.9.3v.3c0-1.5-.3-3-.7-4.4-1.6-5.8-7.2-9.7-13.2-10.2M4.9 15.3l6.1 12 6.7-8zm35.9 40.4 9.9 4.5-1.8-11.8zm-18-46.2L16.7 4l-2 6.9zm32.8 31.7-1.4 7.7 4.8-.7zm-4.9-22.6 2.5 8.1 6-7.1zm-10.2-8.3L52.7 13l-1.3-8.9zM10.2 43.7 7 51.2l9.8-3zm13.2 16.6v-7.7l-6 2.9z" style="fill:#fff"/></svg>