<svg xmlns="http://www.w3.org/2000/svg" width="1103.75" height="667.92218" viewBox="0 -80 1143.75 707.92218"><g fill="#fff"><path d="m552.048 0-84.852 128.794h169.2zm-169.2 257.084 84.348-128.29 84.852 128.29zm169.2 0h169.706l-85.358-128.29z"/><path d="m0 39.824 41.429 125L330 208.395v30.715L70.714 267.68l51.429 100.714 215-80.714 13.571 26.429L186.43 438.395l70.714 50 120-133.571 18.571 17.857-58.571 139.286 70.714 14.286 25-127.143c22.246 3.026 54.919 0 54.037-30.715-.43-14.968-7.41-33.317-33.235-41.285C342.228 292.73 365 153.395 400 95.538c-41.836 33.256-44.812 50.044-56.429 65.715C324.464 156.163 0 39.824 0 39.824m1103.75 0-41.429 125-288.571 43.571v30.715l259.286 28.571-51.429 100.714-215-80.714-13.571 26.429L917.32 438.395l-70.714 50-120-133.571-18.571 17.857 58.571 139.286-70.714 14.286-25-127.143c-22.246 3.026-54.919 0-54.037-30.715.43-14.968 7.41-33.317 33.235-41.285 111.431-34.38 88.659-173.715 53.659-231.572 41.836 33.256 44.812 50.044 56.429 65.715 19.107-5.09 343.571-121.429 343.571-121.429M452.5 602.324l-11.786 35.357 45.893-43.571s4.822-9.286-5.178-13.929h-16.596c-3.226-.614-.748-6.462-.748-6.462s23.024-37.12 35.29-57.11c3.189-14.862-20.014-28.214-32.18-14.731-14.695 29.592-34.516 78.303-37.552 78.303H343.57s-16.428 2.947-6.428 16.072 66.428 54.642 66.428 54.642l-21.517-48.571zm198.808 0 11.785 35.357L617.2 594.11s-4.821-9.286 5.179-13.929h16.596c3.225-.614.748-6.462.748-6.462s-23.025-37.12-35.29-57.11c-3.19-14.862 20.014-28.214 32.179-14.731 14.696 29.592 34.517 78.303 37.553 78.303h86.071s16.429 2.947 6.429 16.072-66.429 54.642-66.429 54.642l21.518-48.571z"/><path d="M552.048 296.732c-.757 15.153-20.978 52.53-26.28 58.094-4.26 4.467-10.1 13.567-21.97 44.281-11.869 30.715-6.963 32.173-31.562 50.157 101.164 46.52 43.437 93.713 43.437 104.562 12.67 32.03 36.375 96.719 36.375 96.719s23.674-64.69 36.344-96.719c0-10.849-57.727-58.043 43.438-104.562-24.6-17.984-19.694-19.442-31.563-50.157s-17.71-39.814-21.969-44.28c-5.303-5.565-25.492-42.942-26.25-58.095"/></g></svg>