<svg xmlns="http://www.w3.org/2000/svg" xml:space="preserve" id="Layer_1" x="0px" y="0px" version="1.1" viewBox="0 0 32 32"><style>.st0{fill:#fff}</style><circle id="XMLID_222_" cx="16" cy="9.5" r="1.5" class="st0"/><path id="XMLID_221_" d="M13 10s-3.717-.075 2-3V6s-2.892-.499-5-2c0 0 .561 1.5 2 2 0 0-9.635 5 1 5z" class="st0"/><path id="XMLID_220_" d="M19 10s3.717-.075-2-3V6s2.892-.499 5-2c0 0-.561 1.5-2 2 0 0 9.635 5-1 5z" class="st0"/><path d="m30 15-1.5 1.5a.707.707 0 0 0 1 1l.5-.5 1 1-.87 1h-1.471l-1.42-1.552C22.898 12.1 17.312 12.021 16 12c-1.271 0-6.898.048-11.238 5.396L3.342 19H2l-1-1 1-1 .5.5a.707.707 0 0 0 1-1L2 15l-2 2.027V19s5.915 9 16 9 16-9 16-9v-2zM8.001 22.999 5 20.001l3.002-3c-.274.487-.535 1.07-.66 1.625a6.02 6.02 0 0 0 .659 4.373m13.846-1.626c-.492 2.203-2.268 3.979-4.466 4.472a6.016 6.016 0 0 1-7.227-7.22 5.96 5.96 0 0 1 4.466-4.47 6.015 6.015 0 0 1 7.227 7.218m2.151 1.626c.274-.487.535-1.07.66-1.625A6 6 0 0 0 24 17.001l3 2.998z" class="st0"/><path d="M16 16c-2.206 0-4 1.794-4 3.999C12 22.206 13.794 24 16 24s4-1.794 4-4.001A4.004 4.004 0 0 0 16 16m0 5a1 1 0 1 1 0-2 1 1 0 0 1 0 2" class="st0"/></svg>