<svg xmlns="http://www.w3.org/2000/svg" xml:space="preserve" id="Layer_1" x="0px" y="0px" version="1.1" viewBox="0 0 32 32"><style>.st0{fill:#fff}</style><g id="Hyrule_Warriors_Legends"><path id="Contour" d="M18 8.2V6c0-.6-.4-1-.9-1h-2c-.6 0-1.1.4-1.1 1v2.2C8 9.1 4 14.1 4 20c0 6.6 5.4 12 12 12s12-5.4 12-12c0-5.9-4-10.9-10-11.8m-1.9 22.3c-5.8 0-10.5-4.7-10.5-10.5S10.3 9.5 16.1 9.5 26.6 14.2 26.6 20s-4.7 10.5-10.5 10.5" class="st0"/><path id="Compass_Detail" d="M16.1 10.5c-5.2 0-9.5 4.3-9.5 9.5s4.3 9.5 9.5 9.5 9.5-4.3 9.5-9.5-4.3-9.5-9.5-9.5m0 13.5-3.5-5.5h7zm0-11 7 11h-14z" class="st0"/><path id="Eye_Hook" d="M16.1 9c-2.5 0-4.5-2-4.5-4.5s2-4.5 4.5-4.5 4.5 2 4.5 4.5S18.5 9 16.1 9m0-7c-1.4 0-2.5 1.1-2.5 2.5S14.7 7 16.1 7s2.5-1.1 2.5-2.5S17.4 2 16.1 2" class="st0"/></g></svg>