<?xml version="1.0" encoding="utf-8"?>
<!-- Generator: Adobe Illustrator 19.2.1, SVG Export Plug-In . SVG Version: 6.00 Build 0)  -->
<svg version="1.1" id="Layer_1" xmlns="http://www.w3.org/2000/svg" xmlns:xlink="http://www.w3.org/1999/xlink" x="0px" y="0px"
	 viewBox="0 0 32 32" style="enable-background:new 0 0 32 32;" xml:space="preserve">
<style type="text/css">
	.st0{fill:#FFFFFF;}
</style>
<g id="Hyrule_Warriors_Legends">
	<path id="Contour" class="st0" d="M18,8.2V6c0-0.6-0.4-1-0.9-1h-2C14.5,5,14,5.4,14,6v2.2C8,9.1,4,14.1,4,20c0,6.6,5.4,12,12,12
		s12-5.4,12-12C28,14.1,24,9.1,18,8.2z M16.1,30.5c-5.8,0-10.5-4.7-10.5-10.5S10.3,9.5,16.1,9.5S26.6,14.2,26.6,20
		S21.9,30.5,16.1,30.5z"/>
	<path id="Compass_Detail" class="st0" d="M16.1,10.5c-5.2,0-9.5,4.3-9.5,9.5c0,5.2,4.3,9.5,9.5,9.5s9.5-4.3,9.5-9.5
		C25.6,14.8,21.3,10.5,16.1,10.5z M16.1,24l-3.5-5.5h3.5h3.5L16.1,24z M16.1,13l7,11h-7h-7L16.1,13z"/>
	<path id="Eye_Hook" class="st0" d="M16.1,9c-2.5,0-4.5-2-4.5-4.5s2-4.5,4.5-4.5s4.5,2,4.5,4.5S18.5,9,16.1,9z M16.1,2
		c-1.4,0-2.5,1.1-2.5,2.5S14.7,7,16.1,7s2.5-1.1,2.5-2.5S17.4,2,16.1,2z"/>
</g>
</svg>
