<svg xmlns="http://www.w3.org/2000/svg" xml:space="preserve" x="0px" y="0px" viewBox="0 0 32 32"><path d="M25.76 21.463c0-2.427 1.694-4.394 3.784-4.394q.232.002.456.035a15 15 0 0 0-.098-1.395C28.863 7.06 23.153-.002 16 0 8.848-.002 3.138 7.06 2.099 15.708q-.083.72-.099 1.428c.207-.041.419-.067.636-.067 2.09 0 3.785 1.967 3.785 4.394 0 1.747-.881 3.251-2.153 3.959C6.714 29.298 10.942 31.936 16 32c5.091-.065 9.341-2.735 11.781-6.651-1.202-.736-2.021-2.198-2.021-3.886M7 9c0-1.933 1.343-3.5 3-3.5s3 1.567 3 3.5-1.343 3.5-3 3.5S7 10.933 7 9m8 17c-2.761 0-5-2.686-5-6s2.238-6 5-6 5 2.686 5 6-2.239 6-5 6m7.004-12c-1.657 0-3-1.791-3-4s1.343-4 3-4 3 1.791 3 4-1.343 4-3 4" style="fill:#fff"/></svg>