<svg xmlns="http://www.w3.org/2000/svg" xml:space="preserve" id="Layer_1" x="0px" y="0px" version="1.1" viewBox="0 0 32 32"><style>.st0{fill:#fff}</style><path id="XMLID_293_" d="M21 14.5a1.5 1.5 0 1 0 0 3 1.5 1.5 0 0 0 0-3" class="st0"/><path id="XMLID_291_" d="M11 14.5a1.5 1.5 0 1 0 0 3 1.5 1.5 0 0 0 0-3" class="st0"/><path id="XMLID_287_" d="M30 23s-1.909-2.636-4.147-4.014q.16-.274.302-.553c.956.025 3.816.131 5.845.553 0 0-1.67-2.138-4.972-3.205a6.7 6.7 0 0 0-.331-3.235c-.937-2.611-2.396-3.829-3.938-4.284C22.678 3.518 22 2 22 2c-.354.803-1.662 4.857-2 6-2.284.297-4 2-4 2s-1.715-1.703-4-2c-.338-1.143-1.646-5.197-2-6 0 0-.677 1.518-.758 6.263-1.543.455-3.002 1.673-3.939 4.284a6.7 6.7 0 0 0-.331 3.235C1.67 16.848 0 18.987 0 18.987c2.029-.422 4.889-.529 5.845-.553q.142.279.302.553C3.909 20.364 2 23 2 23c1.267-.548 4.742-1.505 5.778-1.783q.208.238.424.468C6.4 23.506 5 27 5 27c1.194-.898 4.176-2.968 5.15-3.472q.17.144.341.284C9.729 26.085 9 30 9 30l3.915-4.383C14.662 26.799 16 28 16 28s1.338-1.201 3.085-2.383L23 30s-.73-3.915-1.49-6.188l.341-.284c.973.504 3.954 2.574 5.149 3.472 0 0-1.352-3.522-3.201-5.315q.215-.231.424-.468c1.035.278 4.511 1.235 5.777 1.783m-16.037-4.175a.31.31 0 0 1-.289.175.7.7 0 0 1-.344-.111.9.9 0 0 0-.425-.103c-.118 0-.199.02-.199.02l-.021.005c-1.856.297-3.18-.032-3.916-.968-.871-1.107-.609-2.683-.547-2.988a1.8 1.8 0 0 0-.142-1.128c-.058-.109-.137-.366-.027-.557a.33.33 0 0 1 .295-.17c.108 0 .225.043.371.134q.222.14.428.14c.094 0 .15-.023.15-.023l.032-.012c1.586-.44 2.789-.203 3.547.688 1.126 1.325.853 3.609.841 3.705l-.005.027c-.02.087-.049.347.062.497.207.282.269.501.189.669m9.269-.982c-.736.936-2.06 1.265-3.916.968l-.021-.004c-.001 0-.082-.02-.2-.02a.9.9 0 0 0-.425.103.74.74 0 0 1-.344.11.31.31 0 0 1-.289-.175c-.08-.168-.019-.387.189-.669.11-.15.082-.41.062-.497l-.005-.027c-.012-.097-.285-2.381.841-3.705.757-.892 1.961-1.128 3.547-.688l.032.012s.057.023.15.023a.8.8 0 0 0 .428-.14c.146-.091.264-.134.372-.134.127 0 .235.062.296.169.11.192.03.448-.028.557a1.8 1.8 0 0 0-.142 1.128c.062.306.324 1.882-.547 2.989" class="st0"/></svg>