<?xml version="1.0" encoding="utf-8"?>
<!-- Generator: Adobe Illustrator 19.2.1, SVG Export Plug-In . SVG Version: 6.00 Build 0)  -->
<svg version="1.1" id="Layer_1" xmlns="http://www.w3.org/2000/svg" xmlns:xlink="http://www.w3.org/1999/xlink" x="0px" y="0px"
	 viewBox="0 0 32 32" style="enable-background:new 0 0 32 32;" xml:space="preserve">
<style type="text/css">
	.st0{fill:#FFFFFF;}
	.st1{fill-rule:evenodd;clip-rule:evenodd;fill:#FFFFFF;}
</style>
<g>
	<g id="XMLID_293_">
		<path class="st0" d="M21,14.5c-0.829,0-1.5,0.672-1.5,1.5c0,0.828,0.671,1.5,1.5,1.5c0.828,0,1.5-0.672,1.5-1.5
			C22.5,15.172,21.828,14.5,21,14.5z"/>
	</g>
	<g id="XMLID_291_">
		<path class="st0" d="M11,14.5c-0.829,0-1.5,0.672-1.5,1.5c0,0.828,0.671,1.5,1.5,1.5c0.828,0,1.5-0.672,1.5-1.5
			C12.5,15.172,11.828,14.5,11,14.5z"/>
	</g>
	<g id="XMLID_287_">
		<path class="st0" d="M30,23c0,0-1.909-2.636-4.147-4.014c0.106-0.182,0.207-0.367,0.302-0.553
			c0.956,0.025,3.816,0.131,5.845,0.553c0,0-1.67-2.138-4.972-3.205c0.149-1.047,0.065-2.13-0.331-3.235
			c-0.937-2.611-2.396-3.829-3.938-4.284C22.678,3.518,22,2,22,2c-0.354,0.803-1.662,4.857-2,6c-2.284,0.297-4,2-4,2
			s-1.715-1.703-4-2c-0.338-1.143-1.646-5.197-2-6c0,0-0.677,1.518-0.758,6.263C7.699,8.718,6.24,9.936,5.303,12.547
			c-0.396,1.105-0.48,2.188-0.331,3.235C1.67,16.848,0,18.987,0,18.987c2.029-0.422,4.889-0.529,5.845-0.553
			c0.095,0.186,0.195,0.37,0.302,0.553C3.909,20.364,2,23,2,23c1.267-0.548,4.742-1.505,5.778-1.783
			c0.139,0.158,0.28,0.315,0.424,0.468C6.4,23.506,5,27,5,27c1.194-0.898,4.176-2.968,5.15-3.472
			c0.114,0.096,0.227,0.191,0.341,0.284C9.729,26.085,9,30,9,30l3.915-4.383C14.662,26.799,16,28,16,28s1.338-1.201,3.085-2.383
			L23,30c0,0-0.73-3.915-1.49-6.188c0.113-0.093,0.227-0.188,0.341-0.284C22.824,24.032,25.805,26.102,27,27
			c0,0-1.352-3.522-3.201-5.315c0.144-0.154,0.284-0.31,0.424-0.468C25.258,21.495,28.734,22.452,30,23z M13.963,18.825
			C13.91,18.934,13.802,19,13.674,19c-0.097,0-0.21-0.036-0.344-0.111c-0.154-0.085-0.316-0.103-0.425-0.103
			c-0.118,0-0.199,0.02-0.199,0.02l-0.021,0.005c-1.856,0.297-3.18-0.032-3.916-0.968c-0.871-1.107-0.609-2.683-0.547-2.988
			c0.122-0.603-0.115-1.076-0.142-1.128c-0.058-0.109-0.137-0.366-0.027-0.557C8.113,13.062,8.221,13,8.348,13
			c0.108,0,0.225,0.043,0.371,0.134c0.147,0.093,0.291,0.14,0.428,0.14c0.094,0,0.15-0.023,0.15-0.023l0.032-0.012
			c1.586-0.44,2.789-0.203,3.547,0.688c1.126,1.325,0.853,3.609,0.841,3.705l-0.005,0.027c-0.02,0.087-0.049,0.347,0.062,0.497
			C13.981,18.438,14.043,18.657,13.963,18.825z M23.232,17.843c-0.736,0.936-2.06,1.265-3.916,0.968l-0.021-0.004
			c-0.001,0-0.082-0.02-0.2-0.02c-0.109,0-0.271,0.018-0.425,0.103C18.536,18.964,18.423,19,18.326,19
			c-0.128,0-0.236-0.066-0.289-0.175c-0.08-0.168-0.019-0.387,0.189-0.669c0.11-0.15,0.082-0.41,0.062-0.497l-0.005-0.027
			c-0.012-0.097-0.285-2.381,0.841-3.705c0.757-0.892,1.961-1.128,3.547-0.688l0.032,0.012c0,0,0.057,0.023,0.15,0.023
			c0.137,0,0.282-0.047,0.428-0.14C23.427,13.043,23.545,13,23.653,13c0.127,0,0.235,0.062,0.296,0.169
			c0.11,0.192,0.03,0.448-0.028,0.557c-0.027,0.052-0.264,0.525-0.142,1.128C23.841,15.16,24.103,16.736,23.232,17.843z"/>
	</g>
</g>
</svg>
