<svg xmlns="http://www.w3.org/2000/svg" xml:space="preserve" id="Layer_1" x="0px" y="0px" version="1.1" viewBox="0 0 32 32"><style>.st0{fill:#fff}</style><path id="XMLID_28_" d="M7.258 9.824c-1.144-.946-5.709 3.739-4.917 5.343.79 1.603 2.101 3.924 2.101 3.924s.558-1.375 3.36-2.882 3.29-5.461 3.29-5.461-2.689.022-3.834-.924" class="st0"/><path id="XMLID_27_" d="M3.258 10.262c.329-.322.875-.817 1.467-1.189-1.511-1.301-3.349-1.666-4.24-.792-.923.905-.49 2.809.956 4.32.437-.822 1.13-1.664 1.817-2.339" class="st0"/><path id="XMLID_7_" d="m12.462 10.832-.017.017-.049.398c-.016.124-.397 3.05-2.324 4.94-.377.37-.793.678-1.237.917-.994.535-1.808 1.11-2.417 1.706a11 11 0 0 0-1.109 1.328l-.039.076-.725 1.527c-1.366 3.201-1.497 5.867-.072 7.265 2.909 2.854 11.204-.656 18.525-7.839 7.322-7.184 10.9-15.321 7.99-18.175s-11.204.656-18.526 7.84m-1.497 17.133c-.634.635-1.581.716-2.114.183s-.449-1.479.184-2.113c.635-.635 1.58-.716 2.114-.183.532.532.45 1.478-.184 2.113m5-2c-.634.634-1.58.716-2.113.183s-.451-1.479.183-2.113c.634-.635 1.581-.717 2.114-.184.532.534.451 1.479-.184 2.114m-2.904-3.905a1.5 1.5 0 1 1-2.121-2.12 1.5 1.5 0 0 1 2.121 2.12m4.865-1.133c-.651.651-1.593.764-2.105.252s-.399-1.454.252-2.106c.652-.651 1.595-.764 2.107-.253.511.512.398 1.456-.254 2.107m1.135-8.866a1.5 1.5 0 1 1-2.121-2.12 1.5 1.5 0 0 1 2.121 2.12m4.168-.935c-.547.547-1.495.487-2.117-.135s-.682-1.57-.135-2.117c.548-.547 1.494-.486 2.116.135.622.622.683 1.57.136 2.117m2.909-2.988c-.539.539-1.486.468-2.114-.161-.629-.628-.701-1.575-.162-2.115.541-.54 1.487-.468 2.116.161.628.628.7 1.576.16 2.115" class="st0"/></svg>