<?xml version="1.0" encoding="utf-8"?>
<!-- Generator: Adobe Illustrator 19.2.1, SVG Export Plug-In . SVG Version: 6.00 Build 0)  -->
<svg version="1.1" id="Layer_1" xmlns="http://www.w3.org/2000/svg" xmlns:xlink="http://www.w3.org/1999/xlink" x="0px" y="0px"
	 viewBox="0 0 32 32" style="enable-background:new 0 0 32 32;" xml:space="preserve">
<style type="text/css">
	.st0{fill:#FFFFFF;}
	.st1{fill-rule:evenodd;clip-rule:evenodd;fill:#FFFFFF;}
</style>
<g>
	<path class="st0" d="M23.814,1.75c1.279,1.56,1.452,3.798,0.596,5.839c2.037-0.853,4.272-0.682,5.832,0.591
		C29.651,4.914,27.079,2.338,23.814,1.75z M26.982,5.018c-0.501-0.501-0.704-1.11-0.453-1.36c0.25-0.25,0.86-0.047,1.361,0.454
		c0.501,0.501,0.704,1.11,0.454,1.361S27.483,5.519,26.982,5.018z"/>
</g>
<g>
	<path class="st0" d="M31.612,10.003C31.857,9.418,32,8.747,32,8.03c0-2.152-1.26-3.894-2.848-4.031
		c1.104,1.349,1.777,3.059,1.825,4.923C31.239,9.255,31.447,9.619,31.612,10.003z"/>
</g>
<g>
	<path class="st0" d="M23.037,1.021c1.838,0.037,3.526,0.688,4.871,1.756C27.725,1.223,26.005,0,23.886,0
		c-0.702,0-1.36,0.135-1.935,0.371C22.344,0.537,22.702,0.762,23.037,1.021z"/>
</g>
<g>
	<g>
		<path class="st0" d="M22.784,2.116c-1.782-1.782-4.994-1.461-7.172,0.717c-2.179,2.179-2.5,5.39-0.717,7.172
			s4.994,1.461,7.172-0.717C24.246,7.109,24.567,3.898,22.784,2.116z M17.744,8.16l-1.793-1.793l0.897-2.69l2.69-0.897l1.793,1.793
			l-0.897,2.69L17.744,8.16z"/>
	</g>
	<g>
		<polygon class="st0" points="20.254,4.933 19.178,3.857 17.564,4.395 17.026,6.008 18.102,7.084 19.716,6.546 		"/>
	</g>
</g>
<g>
	<path class="st0" d="M29.884,9.216c-1.782-1.782-4.994-1.461-7.172,0.717c-2.179,2.179-2.5,5.39-0.717,7.172
		c1.782,1.782,4.994,1.461,7.172-0.717C31.346,14.209,31.667,10.998,29.884,9.216z M27.983,10.919c0.545,0,0.988,0.442,0.988,0.988
		c0,0.545-0.442,0.988-0.988,0.988h-0.988v-0.988C26.995,11.361,27.437,10.919,27.983,10.919z M24.089,11.907
		c0-0.546,0.442-0.988,0.988-0.988c0.545,0,0.988,0.442,0.988,0.988v0.988h-0.988C24.531,12.894,24.089,12.452,24.089,11.907z
		 M25.076,15.801c-0.545,0-0.988-0.442-0.988-0.988s0.442-0.988,0.988-0.988h0.988v0.988C26.064,15.359,25.622,15.801,25.076,15.801
		z M26.995,14.813v-0.988h0.988c0.545,0,0.988,0.442,0.988,0.988c0,0.545-0.442,0.988-0.988,0.988
		C27.437,15.801,26.995,15.359,26.995,14.813z"/>
</g>
<g>
	<g>
		<polygon class="st0" points="0,28.707 0,32 3.293,32 		"/>
	</g>
	<g>
		<path class="st0" d="M20.371,11.629c-2.099,0.88-4.404,0.671-5.968-0.708l0.539,2.091c-0.188,0.039-0.414,0.157-0.56,0.303
			c-0.396,0.396-0.441,1.083-0.045,1.479l0.098,0.098l-9.905,10.9c-0.396-0.276-0.913-0.279-1.266,0.075
			c-0.377,0.377-0.372,0.959-0.033,1.357L2.527,28h-1.82L4,31.293v-1.82l0.787-0.715c0.398,0.34,0.992,0.333,1.368-0.044
			c0.353-0.353,0.328-0.848,0.052-1.243l10.9-9.905l0.098,0.098c0.396,0.396,1.083,0.351,1.479-0.045
			c0.146-0.146,0.242-0.35,0.28-0.537l2.114,0.517C19.7,16.033,19.493,13.726,20.371,11.629z"/>
	</g>
</g>
</svg>
