<svg xmlns="http://www.w3.org/2000/svg" xml:space="preserve" id="Layer_1" x="0px" y="0px" version="1.1" viewBox="0 0 32 32"><style>.st0{fill:#fff}</style><path d="M23.467 22.657a7.45 7.45 0 0 0-3.73-7.157 7.44 7.44 0 0 0 3.67-5.364L26 11l2-3-2.281-2.594-2.219.407-.219-.469 1.344-3.75L24 1l-5-1h-6L8 1l-.625.594 1.344 3.75-.219.469-2.219-.407L4 8l2 3 2.593-.864a7.44 7.44 0 0 0 3.67 5.364 7.45 7.45 0 0 0-3.73 7.157L7 22l-2 2.5 2 2 1.5-.5.5 1-2 4 2 1h14l2-1-2-4 .5-1 1.5.5 2-2-2-2.5zM8.5 1.922 13.08 1h5.841l4.58.922L22.404 5H17.5L17 4h-2l-.5 1H9.596zm5.097 14.043a.5.5 0 0 0 0-.93 6.46 6.46 0 0 1-4.087-5.9l1.74-2.948 2.75.594L15 9h2l1-2.219 2.75-.594 1.74 2.948a6.46 6.46 0 0 1-4.087 5.9.5.5 0 0 0 0 .93A6.465 6.465 0 0 1 22.5 22c0 .381-.04.752-.103 1.115l-.897.385-1.25 1.75L18.5 25l-1.094-2h-2.812L13.5 25l-1.75.25-1.25-1.75-.897-.385A6.5 6.5 0 0 1 9.5 22a6.465 6.465 0 0 1 4.097-6.035M23.5 30.549l-.876.451H9.376l-.876-.451L10.224 27h11.553z" class="st0"/><path d="m16.585 19.917.386-4.905a.98.98 0 0 1 .653-.857 5.21 5.21 0 0 0 3.578-5.187l-.028-.095-.919-1.557-1.551.335L17.646 10h-3.292l-1.058-2.348-1.551-.335-.919 1.557-.028.095a5.21 5.21 0 0 0 3.578 5.187.97.97 0 0 1 .653.857l.399 5.075c-1.47.217-2.94.417-4.41.474-.133.46-.227.936-.227 1.439 0 .192.036.375.057.562l.303.13 1.06 1.482.652-.093L14.001 22h3.998l1.138 2.081.652.093 1.06-1.482.303-.13c.02-.187.057-.369.057-.562 0-.924-.261-1.78-.683-2.532-1.314.076-2.628.256-3.941.449" class="st0"/></svg>