<svg xmlns="http://www.w3.org/2000/svg" xml:space="preserve" id="Layer_1" x="0px" y="0px" version="1.1" viewBox="0 0 32 32"><style>.st0{fill:#fff}</style><g id="Skyward_Sword_3_"><path id="XMLID_197_" d="m26.618 12.906-.162-2.232c.453-.303.72-.592.72-.592-1.898.274-3.819-1.439-3.819-1.439s-1.712-1.921-1.439-3.819c0 0-.289.267-.592.72l-2.232-.162-2.423.542 2.704 1.785 1.278-.388c-.081.849.172 1.839 1.18 2.846s1.997 1.261 2.846 1.18l-.388 1.278 1.785 2.704z" class="st0"/><path id="XMLID_196_" d="M24.144 7.893c-.01-.011.717.621 1.678 1.014l.294-.158.291-.291-.333-1.291 4.721-4.721.778.162C31.222 2.018 32 .641 32 .641L31.679.32l-.32-.32s-1.377.778-1.967.428l.162.778-4.721 4.721-1.291-.333-.291.291-.158.293c.397.965 1.039 1.701 1.051 1.715" class="st0"/><path id="XMLID_193_" d="M22.29 11.816a5 5 0 0 1-1.203-.902 5 5 0 0 1-.902-1.203l-1.439 1.439-1.24-.196-.678.678-.077 1.071L1.597 28.132S.393 30.343 0 32c1.657-.392 3.868-1.597 3.868-1.597L19.297 15.25l1.071-.077.678-.678-.196-1.24zm-2.055 2.322-1.617.431L17 15l.431-1.617 1.186 1.186.431-1.617-1.617.431.431-1.617 1.186 1.186z" class="st0"/></g></svg>