<svg xmlns="http://www.w3.org/2000/svg" xml:space="preserve" id="Layer_1" x="0px" y="0px" version="1.1" viewBox="0 0 32 32"><style>.st0{fill:#fff}</style><path d="M7 4v19c0 1 .555 1 1 1 3.607 0 6.218 1.109 8 2.331C17.782 25.109 20.393 24 24 24c.5 0 .971 0 1-1V4zm8 10H9V6h6z" class="st0"/><path d="M16 0H1v2s2-.37 2 5v16s0 5 5 5c5.985 0 8 4 8 4s2.014-4 8-4c4.958 0 5-5 5-5V7c0-5.37 2-5 2-5V0zm11 6.926v16.139c0 .886-.337 3.026-2.986 3.026-3.977 0-6.505 1.516-8.014 2.902-1.51-1.387-4.038-2.902-8.014-2.902C5.114 26.092 5 23.571 5 23.066V6.926C5 4.531 4.548 3 4 2h24c-.548 1-1 2.531-1 4.926" class="st0"/></svg>