<svg xmlns="http://www.w3.org/2000/svg" xml:space="preserve" id="Layer_1" x="0px" y="0px" version="1.1" viewBox="0 0 32 32"><style>.st0{fill:#fff}</style><circle id="XMLID_24_" cx="21" cy="4" r="1" class="st0" transform="rotate(-45.009 21 4)"/><circle id="XMLID_23_" cx="28" cy="11" r="1" class="st0" transform="rotate(-44.992 28.002 11)"/><circle id="XMLID_22_" cx="26.5" cy="13.5" r="0.5" class="st0" transform="rotate(-44.996 26.498 13.5)"/><circle id="XMLID_21_" cx="18.5" cy="5.5" r="0.5" class="st0" transform="rotate(-45.001 18.5 5.5)"/><circle id="XMLID_18_" cx="28.496" cy="0.504" r="0.504" class="st0" transform="rotate(-44.992 28.498 .503)"/><circle cx="28.5" cy="0.5" r="0.5" class="st0"/><circle cx="31.5" cy="0.5" r="0.5" class="st0"/><circle cx="31.5" cy="3.5" r="0.5" class="st0"/><path d="M31.5 1.5c-.551 0-1-.449-1-1 0-.186.065-.351.154-.5h-1.307a1 1 0 0 1 .153.5c0 .551-.449 1-1 1a.97.97 0 0 1-.5-.154V2s-4.988 4-5 5c0 0-.427-.464-.967-1.916a1.494 1.494 0 0 1-2.094-.023 1.5 1.5 0 0 1-.382-.67c-.476-.631-.859-.342-1.228.143.058-.01.112-.034.171-.034a1 1 0 0 1 .707 1.707c-.041.041-.094.061-.14.094.13.109.393.204.794.241.672.061 1.404.346 1.811 1.078S20.461 9.444 19 9c0 0-.924 2.924-16 18 0 0-2.195 2.14-3 4.981L.019 32C2.86 31.195 5 29 5 29c15.077-15.076 18-16 18-16-.444-1.461.648-3.079 1.38-2.672s1.017 1.14 1.078 1.811c.037.403.133.663.243.792.032-.045.051-.097.091-.138.189-.189.44-.293.707-.293s.518.104.707.293a.98.98 0 0 1 .258.884c.498-.373.781-.754.145-1.235a1.5 1.5 0 0 1-.67-.382 1.5 1.5 0 0 1-.02-2.092C25.462 9.427 25 9 25 9c.976-.012 5-5 5-5h.654a.97.97 0 0 1-.154-.5c0-.551.449-1 1-1 .186 0 .351.065.5.154V1.346a.97.97 0 0 1-.5.154" class="st0"/></svg>