<?xml version="1.0" encoding="utf-8"?>
<!-- Generator: Adobe Illustrator 19.2.1, SVG Export Plug-In . SVG Version: 6.00 Build 0)  -->
<svg version="1.1" id="Layer_1" xmlns="http://www.w3.org/2000/svg" xmlns:xlink="http://www.w3.org/1999/xlink" x="0px" y="0px"
	 viewBox="0 0 32 32" style="enable-background:new 0 0 32 32;" xml:space="preserve">
<style type="text/css">
	.st0{fill:#FFFFFF;}
	.st1{fill-rule:evenodd;clip-rule:evenodd;fill:#FFFFFF;}
</style>
<path class="st0" d="M23,28c0,0,4-2.906,4-11c0-7.045-5.725-9.495-7.21-10.012c-0.064-0.149-0.136-0.294-0.222-0.43
	C20.323,5.678,22,3.551,22,2c0-0.13-0.012-0.234-0.032-0.317C21.815,0.73,20.996,0,20,0c-1.105,0-2,0.895-2,2
	c0,0.895,0.592,1.645,1.404,1.899l-0.729,1.745c-0.472-0.309-1.034-0.492-1.64-0.492c-1.657,0-3,1.343-3,3
	c0,0.198,0.022,0.39,0.058,0.577C12.449,8.843,7.633,9.554,5,14c0,0,7.868-1.157,10-3c0,0-4.891,3.596-6,6
	c0,0,5.529,1.516,7.129-6.002c0.288,0.092,0.588,0.155,0.906,0.155c1.159,0,2.153-0.664,2.652-1.626C26.062,17.628,10,18,10,18
	c-3.719-1.656-3.75,0.656-3.75,0.656c0.041,5.004,3.28,7.858,5.557,9.253c-0.065-1.086-0.05-2.223,0.033-3.343l0.026-0.4
	c0.008-0.141,0.017-0.289,0.013-0.389c0.004-0.215-0.015-0.478-0.056-0.714c-0.076-0.485-0.228-0.959-0.436-1.399
	c-0.421-0.876-1.05-1.609-1.699-2.073c-0.324-0.225-0.658-0.399-0.961-0.442c-0.303-0.057-0.553,0.07-0.623,0.293
	c-0.081,0.212-0.065,0.415-0.055,0.542c0.017,0.131,0.025,0.201,0.025,0.201s-0.021-0.068-0.06-0.194
	c-0.031-0.128-0.09-0.323-0.04-0.588c0.017-0.281,0.381-0.565,0.767-0.545c0.386-0.012,0.787,0.12,1.194,0.305
	c0.807,0.387,1.639,1.058,2.31,1.986c0.331,0.466,0.618,1,0.822,1.586c0.106,0.297,0.183,0.586,0.241,0.928
	c0.034,0.178,0.048,0.311,0.065,0.451l0.044,0.443c0.089,1.096,0.256,2.174,0.469,3.15c0.174,0.774,0.398,1.473,0.64,2.063
	C16.142,31.769,18.719,32,18.719,32C27.406,32,23,28,23,28z M17.5,10C16.672,10,16,9.328,16,8.5S16.672,7,17.5,7
	c0.476,0,0.895,0.226,1.169,0.571c-0.216,0.012-0.439,0.031-0.663,0.079c-0.249,0.086-0.483,0.205-0.695,0.324
	c-0.213,0.12-0.366,0.302-0.501,0.438c-0.136,0.136-0.204,0.302-0.262,0.396c-0.052,0.104-0.066,0.174-0.066,0.174l0.036,0.035
	c0,0,0.165-0.167,0.46-0.36c0.013-0.009,0.034-0.018,0.049-0.027C17.085,8.842,17.27,9,17.5,9C17.776,9,18,8.776,18,8.5
	c0-0.107-0.041-0.2-0.098-0.281c0.082-0.028,0.157-0.066,0.242-0.088c0.257-0.08,0.515-0.12,0.76-0.143
	C18.963,8.148,19,8.319,19,8.5C19,9.328,18.328,10,17.5,10z"/>
</svg>
