<svg xmlns="http://www.w3.org/2000/svg" xml:space="preserve" x="0px" y="0px" viewBox="0 0 32 32"><path d="M23 28s4-2.906 4-11c0-7.045-5.725-9.495-7.21-10.012a3 3 0 0 0-.222-.43C20.323 5.678 22 3.551 22 2q-.001-.194-.032-.317A1.995 1.995 0 0 0 18 2c0 .895.592 1.645 1.404 1.899l-.729 1.745a3 3 0 0 0-1.64-.492 3 3 0 0 0-2.942 3.577C12.449 8.843 7.633 9.554 5 14c0 0 7.868-1.157 10-3 0 0-4.891 3.596-6 6 0 0 5.529 1.516 7.129-6.002.288.092.588.155.906.155a2.99 2.99 0 0 0 2.652-1.626C26.062 17.628 10 18 10 18c-3.719-1.656-3.75.656-3.75.656.041 5.004 3.28 7.858 5.557 9.253a25 25 0 0 1 .033-3.343l.026-.4c.008-.141.017-.289.013-.389a4 4 0 0 0-.056-.714 5.2 5.2 0 0 0-.436-1.399c-.421-.876-1.05-1.609-1.699-2.073-.324-.225-.658-.399-.961-.442-.303-.057-.553.07-.623.293-.081.212-.065.415-.055.542l.025.201-.06-.194c-.031-.128-.09-.323-.04-.588.017-.281.381-.565.767-.545.386-.012.787.12 1.194.305.807.387 1.639 1.058 2.31 1.986.331.466.618 1 .822 1.586.106.297.183.586.241.928.034.178.048.311.065.451l.044.443c.089 1.096.256 2.174.469 3.15.174.774.398 1.473.64 2.063 1.616 1.999 4.193 2.23 4.193 2.23C27.406 32 23 28 23 28m-5.5-18a1.5 1.5 0 0 1 0-3c.476 0 .895.226 1.169.571a4 4 0 0 0-.663.079 4.3 4.3 0 0 0-.695.324c-.213.12-.366.302-.501.438-.136.136-.204.302-.262.396a.8.8 0 0 0-.066.174l.036.035s.165-.167.46-.36c.013-.009.034-.018.049-.027.058.212.243.37.473.37a.5.5 0 0 0 .5-.5c0-.107-.041-.2-.098-.281.082-.028.157-.066.242-.088.257-.08.515-.12.76-.143.059.16.096.331.096.512a1.5 1.5 0 0 1-1.5 1.5" style="fill:#fff"/></svg>