<svg xmlns="http://www.w3.org/2000/svg" xml:space="preserve" id="Layer_1" x="0px" y="0px" version="1.1" viewBox="0 0 32 32"><style>.st0{fill:#fff}</style><path d="M30 17.407a3 3 0 0 0-.108-.799c-.499-1.79-2.646-9.346-4.847-14.871a1 1 0 0 0-.567-.553C23.81.914 22.688.353 22 .073c-.262-.107-.747-.096-1 .029l-1.264.49C19.399.758 19 1.124 19 1.5v1.676c0 .396.417.753.781.909L22 5.311 23 5s.999 4.669 1 8.992c0 .555-.445 1.008-1 1.008H9c-.555 0-1-.453-1-1.008C8.001 9.669 9 5 9 5l1 .311 2.219-1.226c.364-.155.781-.513.781-.909V1.5c0-.376-.399-.742-.736-.908L11 .102c-.253-.125-.738-.135-1-.029-.688.28-1.81.841-2.477 1.111a1 1 0 0 0-.568.553C4.754 7.262 2.607 14.819 2.108 16.609a3 3 0 0 0-.108.798V23l4 1 .293-.293A1 1 0 0 1 7 23.414V23s-.07-1 1-1h2a1 1 0 0 1 1 1v1.219a1 1 0 0 0 .757.97l.485.121c.446.112.758.512.758.971v.072c0 .394.231.751.591.912l1.414.634c.161.072.3.186.403.329L18.113 32l3.622-1.488A2.04 2.04 0 0 0 23 28.623v-2.795a2 2 0 0 1 .586-1.414l.707-.707a1 1 0 0 1 1.414 0L26 24l4-1zm-8.082 5.319a1.8 1.8 0 0 0-.143 1.129c.061.304.324 1.881-.547 2.988-.736.936-2.06 1.265-3.916.967l-.02-.004a.8.8 0 0 0-.2-.021.9.9 0 0 0-.425.103.74.74 0 0 1-.345.112.31.31 0 0 1-.288-.176c-.08-.168-.019-.387.189-.669.11-.15.082-.41.062-.496l-.005-.027c-.012-.096-.285-2.38.841-3.705.666-.783 2.053-1.103 3.547-.688l.032.011s.056.023.15.023a.8.8 0 0 0 .429-.14c.144-.091.262-.133.37-.133a.33.33 0 0 1 .296.169c.11.191.03.448-.027.557" class="st0"/><path d="M11 30a1 1 0 0 1 1-1h2v-.611l-1.406-.625A1 1 0 0 1 12 26.85s.027-.593-.513-.728l-.73-.182a1 1 0 0 1-.757-.971V24a1 1 0 0 0-1-1s-1-.039-1 1 1 1.22 1 1.75V29c0 .809.487 1.373 1.234 1.683L11 31z" class="st0"/><circle cx="19" cy="25" r="1.5" class="st0"/></svg>