<?xml version="1.0" encoding="utf-8"?>
<!-- Generator: Adobe Illustrator 19.2.1, SVG Export Plug-In . SVG Version: 6.00 Build 0)  -->
<svg version="1.1" id="Layer_1" xmlns="http://www.w3.org/2000/svg" xmlns:xlink="http://www.w3.org/1999/xlink" x="0px" y="0px"
	 viewBox="0 0 32 32" style="enable-background:new 0 0 32 32;" xml:space="preserve">
<style type="text/css">
	.st0{fill:#FFFFFF;}
	.st1{fill-rule:evenodd;clip-rule:evenodd;fill:#FFFFFF;}
</style>
<g id="XMLID_4_">
	<polygon class="st0" points="12,14 16,21 20,14 	"/>
</g>
<g>
	<path class="st0" d="M31,15h-5c-0.018,0-0.032,0.009-0.05,0.01c-0.081-0.824-0.271-1.614-0.54-2.367l2.64-1.093
		c0.255-0.105,0.376-0.398,0.271-0.653c-0.105-0.254-0.397-0.376-0.653-0.271l-2.64,1.093c-0.35-0.738-0.78-1.431-1.292-2.055
		c0.013-0.012,0.03-0.016,0.043-0.029l3.535-3.535c0.391-0.391,0.391-1.023,0-1.414s-1.023-0.391-1.414,0l-3.535,3.535
		c-0.013,0.013-0.017,0.03-0.029,0.043c-0.625-0.512-1.318-0.941-2.055-1.292l1.094-2.64c0.105-0.255-0.016-0.548-0.271-0.653
		c-0.255-0.104-0.547,0.016-0.653,0.271l-1.094,2.64c-0.753-0.269-1.543-0.459-2.367-0.54C16.991,6.032,17,6.018,17,6V1
		c0-0.552-0.448-1-1-1s-1,0.448-1,1v5c0,0.018,0.009,0.032,0.01,0.05c-0.824,0.081-1.614,0.271-2.367,0.54L11.55,3.95
		c-0.106-0.255-0.399-0.375-0.653-0.271c-0.255,0.105-0.376,0.398-0.271,0.653l1.093,2.64c-0.738,0.35-1.431,0.78-2.055,1.292
		c-0.012-0.013-0.016-0.03-0.029-0.043L6.101,4.687c-0.391-0.391-1.023-0.391-1.414,0s-0.391,1.023,0,1.414l3.535,3.535
		c0.013,0.013,0.03,0.017,0.043,0.029c-0.512,0.625-0.942,1.318-1.292,2.055l-2.64-1.093c-0.254-0.106-0.548,0.015-0.653,0.271
		s0.016,0.548,0.271,0.653l2.64,1.093c-0.269,0.753-0.459,1.543-0.54,2.367C6.032,15.009,6.018,15,6,15H1c-0.552,0-1,0.448-1,1
		s0.448,1,1,1h5c0.018,0,0.032-0.009,0.05-0.01c0.081,0.824,0.271,1.614,0.54,2.367L3.95,20.45
		c-0.255,0.105-0.376,0.398-0.271,0.653c0.08,0.192,0.266,0.309,0.462,0.309c0.064,0,0.129-0.012,0.191-0.038l2.64-1.093
		c0.35,0.738,0.78,1.431,1.292,2.055c-0.013,0.012-0.03,0.016-0.043,0.029l-3.535,3.535c-0.391,0.391-0.391,1.023,0,1.414
		c0.195,0.195,0.451,0.293,0.707,0.293s0.512-0.098,0.707-0.293l3.535-3.535c0.013-0.013,0.017-0.03,0.029-0.043
		c0.625,0.512,1.318,0.942,2.055,1.292l-1.093,2.64c-0.105,0.255,0.016,0.548,0.271,0.653c0.063,0.026,0.127,0.038,0.191,0.038
		c0.196,0,0.382-0.116,0.462-0.309l1.093-2.64c0.753,0.269,1.543,0.459,2.367,0.54C15.009,25.968,15,25.982,15,26v5
		c0,0.552,0.448,1,1,1s1-0.448,1-1v-5c0-0.018-0.009-0.032-0.01-0.05c0.824-0.081,1.614-0.271,2.367-0.54l1.094,2.64
		c0.08,0.192,0.266,0.309,0.462,0.309c0.063,0,0.129-0.012,0.191-0.038c0.255-0.105,0.376-0.398,0.271-0.653l-1.094-2.64
		c0.738-0.35,1.43-0.78,2.055-1.292c0.012,0.013,0.016,0.03,0.029,0.043l3.535,3.535c0.195,0.195,0.451,0.293,0.707,0.293
		s0.512-0.098,0.707-0.293c0.391-0.391,0.391-1.023,0-1.414l-3.535-3.535c-0.013-0.013-0.03-0.017-0.043-0.029
		c0.512-0.625,0.942-1.318,1.292-2.055l2.64,1.093c0.063,0.026,0.128,0.038,0.191,0.038c0.196,0,0.382-0.116,0.462-0.309
		c0.105-0.255-0.016-0.548-0.271-0.653l-2.64-1.093c0.269-0.753,0.459-1.543,0.54-2.367C25.968,16.991,25.982,17,26,17h5
		c0.553,0,1-0.448,1-1S31.553,15,31,15z M16,21H8l4-7l4-7l4,7l4,7H16z"/>
</g>
</svg>
