<?xml version="1.0" encoding="UTF-8"?>
<svg height="667.92218" width="1103.75" viewBox="0 -80 1143.75 707.92218" xmlns="http://www.w3.org/2000/svg">
<style type="text/css">
    .st0{fill:#FFFFFF;}
</style>
<g fill="#fff" transform="translate(332 -275.39538)">
  <g transform="translate(-332 275.93362)">
    <path d="m552.04837-.53824-84.85282 128.79445h169.20055l-84.34773-128.79445"/>
    <path d="m382.84781 256.54558 84.34774-128.28937 84.85282 128.28937z"/>
    <path d="m552.04837 256.54558h169.70562l-85.35789-128.28937z"/>
    <path d="m0 39.28571 41.428571 125 288.571429 43.57143v30.71429l-259.285714 28.57143 51.428574 100.71428 215-80.71428 13.57143 26.42857-164.28572 124.28571 70.71429 50 120-133.57143 18.57143 17.85715-58.57143 139.28571 70.71428 14.28572 25-127.14286c22.24624 3.02664 54.9187 0 54.03638-30.71429-.42999-14.96825-7.40995-33.3174-33.23439-41.28517-111.43137-34.38063-88.65913-173.71483-53.65913-231.57197-41.83583 33.25621-44.81182 50.04333-56.42857 65.71429-19.10714-5.08929-343.57143-121.42858-343.57143-121.42858z"/>
  </g>
  <path d="m771.75 315.21933-41.42857 125-288.57143 43.57143v30.71429l259.28571 28.57143-51.42857 100.71428-215-80.71428-13.57143 26.42857 164.28572 124.28571-70.71429 50-120-133.57143-18.57143 17.85715 58.57143 139.28571-70.71428 14.28572-25-127.14286c-22.24624 3.02664-54.9187 0-54.03638-30.71429.42999-14.96825 7.40995-33.3174 33.23439-41.28517 111.43137-34.38063 88.65913-173.71483 53.65913-231.57197 41.83583 33.25621 44.81182 50.04333 56.42857 65.71429 19.10714-5.08929 343.57143-121.42858 343.57143-121.42858z"/>
  <path d="m452.5 601.78571-11.78571 35.35715 45.89285-43.57143s4.82143-9.28572-5.17857-13.92857c-11.20536 0-14.23302 0-16.59598 0-3.22545-.61384-.74777-6.46206-.74777-6.46206s23.02443-37.12022 35.29018-57.10937c3.18877-14.86245-20.01448-28.21429-32.17945-14.73214-14.69555 29.59205-34.51697 78.30357-37.55269 78.30357s-86.07143 0-86.07143 0-16.42857 2.94643-6.42857 16.07143 66.42857 54.64285 66.42857 54.64285l-21.51786-48.57143z" transform="translate(-332 275.93362)"/>
  <path d="m319.30756 877.71933 11.78571 35.35715-45.89285-43.57143s-4.82143-9.28572 5.17857-13.92857h16.59598c3.22545-.61384.74777-6.46206.74777-6.46206s-23.02443-37.12022-35.29018-57.10937c-3.18877-14.86245 20.01448-28.21429 32.17945-14.73214 14.69555 29.59205 34.51697 78.30357 37.55269 78.30357h86.07143s16.42857 2.94643 6.42857 16.07143-66.42857 54.64285-66.42857 54.64285l21.51786-48.57143z"/>
  <path d="m220.04837 572.1277c-.75761 15.15229-20.97795 52.53004-26.28125 58.09375-4.25824 4.46734-10.09946 13.56696-21.96875 44.28125-11.86928 30.71429-6.96288 32.17316-31.5625 50.15625 101.16438 46.5199 43.4375 93.71389 43.4375 104.5625 12.67027 32.02914 36.375 96.71875 36.375 96.71875s23.67348-64.68961 36.34375-96.71875c0-10.84861-57.72688-58.0426 43.4375-104.5625-24.59962-17.98309-19.69322-19.44196-31.5625-50.15625-11.86929-30.71429-17.71051-39.81391-21.96875-44.28125-5.3033-5.56371-25.49239-42.94146-26.25-58.09375z"/>
</g>
</svg>