<?xml version="1.0" encoding="utf-8"?>
<!-- Generator: Adobe Illustrator 16.0.2, SVG Export Plug-In . SVG Version: 6.00 Build 0)  -->
<!DOCTYPE svg PUBLIC "-//W3C//DTD SVG 1.0//EN" "http://www.w3.org/TR/2001/REC-SVG-20010904/DTD/svg10.dtd">
<svg version="1.0" id="Layer_1" xmlns="http://www.w3.org/2000/svg" xmlns:xlink="http://www.w3.org/1999/xlink" x="0px" y="0px"
	 width="800px" height="327px" viewBox="0 0 800 327" enable-background="new 0 0 800 327" xml:space="preserve">
<g>
	<g>
		<path fill="#4A4947" d="M205.28,8.7c0.66,0.03,1.98,0.09,2.65,0.12c-1.29,5.52-5.03,10.92-2.77,16.73
			c-2.67,1.26-4.95,3.2-6.23,5.9c-4.37,7.87-9.45,15.39-13.19,23.59c2.83-0.17,4.48-2.69,6.52-4.3c3.38-2.8,6.28-6.14,9.75-8.83
			c2.5,0.24,4.88,2.95,4.26,5.58c-0.8,6.12-4.25,11.43-6.41,17.11c-0.49,1.36-0.37,3.53,1.33,3.98c2.58,0.98,3.82-2.19,5.14-3.79
			c3.96-6.53,8.77-12.48,13.72-18.28c2.76-3.84,6.66-6.91,11.17-8.38c2.82,0.01,5.67,2.22,6.01,5.11c0.93,4.42,0.59,9.15-1.02,13.37
			c-2.13,5.76-7.31,9.48-11.84,13.27c-5.59,3.68-11.42,7.11-17.71,9.45c-0.52,1.97-2.5,5.28,0.35,6.31
			c8.92,1.26,16.98-3.75,24.13-8.4c1.41,2.09,2.21,5.52-0.21,7.22c-4.48,3.7-10.09,5.69-15.61,7.28c-3.66,1.04-7.89,1.89-11.3-0.32
			c-3.19-2.47-4.68-6.53-4.68-10.49c-2.02-1.31-4.19-2.5-6.7-2.24c-1.27,3.4-2.21,6.9-3.47,10.3c-0.35,1.86-2.53,0.43-3.4-0.18
			c-1.59-1.44-1.73-3.72-1.12-5.65c3.07-10.95,10.51-20.39,12.31-31.72c-5.53,2.47-9.49,7.31-12.83,12.2
			c-4.12,5.65-7.66,11.68-11.67,17.4c-2.96,4.39-4.68,10.59-10.14,12.51c-0.92-1.65-1.81-3.31-2.71-4.97
			c7.43-16.96,18.09-32.19,27.54-48.03c1.99-3.5,4.71-6.88,4.83-11.08c-3.66,0.14-7.59,1.02-10,4.01
			c-8.15,9.17-14.03,20.05-20.92,30.14c-5.88,8.76-10.96,18.02-16.44,27.02c-1.56-1.04-3.06-2.16-4.54-3.31
			c1.37-4.48,4.02-8.37,6.47-12.31c5.04-7.64,9.94-15.38,15.1-22.94c3.96-6.52,8.89-12.41,12.48-19.15
			c-7.76-0.82-15.43,0.82-23.17,0.93c-4.29,0.52-9,1.11-12.84-1.36c-1.16-1.18-2.06-2.58-3.05-3.9c0.64-0.91,1.27-1.84,1.9-2.76
			c10.86,3.49,22.35,2.35,33.48,1.22c4.42-0.63,22.73-3.63,27.15-5.89C200.38,17.19,202.26,12.58,205.28,8.7z M228.51,47.93
			c-5.7,4.7-10.16,10.65-14.34,16.69c-0.87,1.18-1.74,3.78,0.77,3.15c8.8-3.52,17.92-10.44,18.56-20.66
			C231.81,47.14,229.84,46.54,228.51,47.93z"/>
	</g>
	<g>
		<path fill="#4A4947" d="M287.15,34.63c8.32-8.54,15.49-18.16,23.92-26.58c2.35,6.36,0.81,13.22-0.56,19.62
			c-1.4,7.86-4.59,15.33-5.49,23.29c1.73,0.12,3.47,0.24,5.2,0.4c-0.69,4.27-5.24,4.92-8.25,6.97c-3.42,7.32-6.12,14.96-9.18,22.43
			c-0.58,1.26-0.46,2.46,0.36,3.58c0.29-0.06,0.86-0.17,1.14-0.23c2.68-6.34,6.85-11.83,11.17-17.12
			c4.1-5.51,8.77-10.56,13.74-15.29c3.87-3.83,8.4-7.39,13.79-8.68c2.46,0.62,4.74,1.8,7.21,2.39c2.43-5.2,4.99-10.34,6.98-15.73
			c1.67-4.54,3.63-9.3,7.62-12.31c0.97,1.07,2.35,1.94,2.8,3.39c-2.68,9.7-27.56,59.21-28.57,64.87c1.62,0.74,3.26,1.46,4.88,2.23
			c-0.78,2.97-2.17,5.73-4.93,7.32c-2.61-1.12-5.51-2.82-5.68-5.99c-0.85-2.07,0.28-5.44-2.32-6.31
			c-6.42,4.24-12.19,10.21-20.1,11.49c-2.82,0.46-5.49-1.21-7.05-3.45c-0.62-1.96,1.13-6.33-2.33-5.17
			c-0.51,3.51-1.04,7.02-1.9,10.47c-1.38-0.06-2.76-0.12-4.13-0.18c-2.89-6.25,0.25-13.04,2.02-19.16
			c1.39-5.38,5.18-10.06,5.28-15.74c-7.08,0.04-13.94,3.3-21.02,1.79c-3.13,3.69-6.22,7.45-8.72,11.61
			c-3.69,5.3-4.31,12.37-9.11,16.95c-1.3,1.46-3.29,0.1-4.82-0.14c-0.15-7.09,5-12.57,8.46-18.28
			C266.14,59.3,276.99,47.21,287.15,34.63z M296.63,32.06c-4.13,5.2-17.99,20.94-18.82,24.76c6.6,0.26,13.19-1.48,19.2-4.14
			c1.32-4.56,8.08-23.11,7.8-28.3C301,25.59,299.09,29.22,296.63,32.06z M318.67,60.22c-6.83,8.34-14.56,16.37-18.59,26.54
			c1.35,0.47,2.83,0.9,4.23,0.26c5.68-1.73,10.04-5.94,14.36-9.8c4.06-3.3,7.25-7.49,10.66-11.42c2.99-4.76,5.41-10.37,4.02-16.08
			C327.47,51.59,322.47,55.42,318.67,60.22z"/>
	</g>
	<g>
		<path fill="#4A4947" d="M643.63,27.16c3.55-5.86,9.95-10.43,16.98-10.1c2.91,0.34,4.39,2.99,5.26,5.49
			c-4.15,1.42-8.93,1.44-12.5,4.25c-7.28,5.58-12.1,14.03-14.33,22.83c-2.11,6.7-5.61,13.21-5.54,20.38
			c4.2-0.18,8.28-1.32,12.36-2.32c1.26,1.64,2.6,4.5,0.36,5.96c-4.93,3-11.1,3.14-16.07,6.01c-5.34,11.32-8.87,23.95-17.7,33.27
			c-5.54,5.78-10.81,12.48-18.47,15.51c-2.82-0.02-3.61-2.99-4.69-5.03c13.18-7.29,24.47-18.52,30.21-32.6
			c1.2-3.23,3.31-6.34,3.17-9.91c-1.1-1.25-2.46-2.24-3.73-3.28c-6.11,7.11-12.35,14.75-21.26,18.44c-2.58,0.73-5.17-0.42-6.89-2.34
			c-3.81-3.33-4.22-8.94-3.13-13.58c2.37-8.32,6.26-16.39,12.3-22.69c2.43-2.38,3.44-5.77,5.65-8.31c2.43-1.61,5.87-1.6,8.54-0.69
			c3.51,6.79,5.98,14.29,5.58,22.04c-0.14,4.22,4.37,1.94,6.7,1.37C630.83,56.55,634.69,40.6,643.63,27.16z M609.77,57.23
			c-2.55,2.12-4.79,4.58-7.32,6.73c-5.84,6.79-9.82,15.31-10.23,24.36c4.06,1.1,7.74-1.45,10.86-3.72
			c5.22-3.82,10.14-8.89,11.21-15.53c0.44-3.88,0.83-8.19-1.25-11.69C612.09,56.57,610.73,56.29,609.77,57.23z"/>
	</g>
	<path fill="#4A4947" d="M480.22,18.33c1.26,0.5,2.52,1.03,3.77,1.58c-1.34,3.66-3.94,6.71-5.17,10.43
		c3.74,0.45,7.67,0.23,11.14,1.96c-0.22,0.78-0.66,2.36-0.88,3.14c-5.22,2.54-12.66-0.52-16.53,4.56
		c-5.59,9.88-23.17,48.41-25.85,51.3c-1.63,0.14-3.17-0.64-4.19-1.87c-0.08-2.89,16.74-35.5,23.71-49.27
		c-6.85-0.66-13.31,2.05-19.95,3.2c-0.61-1.65-1.76-3.54-0.74-5.28c5.06-1.82,10.46-2.33,15.67-3.54c3.3-0.81,7.27-0.47,9.93-2.89
		C474.4,27.38,476.71,22.45,480.22,18.33z"/>
	<g>
		<path fill="#4A4947" d="M403.28,40.84c1.91-1.23,4.24-1.99,6.51-1.39c3.12,1.2,2.46,5.33,2.29,8c-1.3,4.86-4.05,9.2-6.73,13.4
			c-6.23,6.52-14.09,11.5-22.63,14.38c-2.57,2.98-4.09,8.13-2.1,11.66c4.13,1.48,8.02-2.39,11.36-4.43
			c9.59-8.48,16.28-19.64,25.26-28.71c1.72-1.75,3.38-3.73,5.75-4.61c1.17,0.51,2.55,1.05,2.94,2.42c1.86,3.4-0.93,6.79-1.78,10.05
			c-1.54,5.57-5.38,10.33-6.18,16.12c2.43,1.54,3.99-2.37,5.57-3.74c7.2-7.51,12.4-16.85,20.58-23.4c1.7-1.93,5.15-0.49,5.28,1.96
			c0.49,3.12-1.45,5.81-2.69,8.49c-5.21,10.19-10.24,20.5-14.13,31.27c-1.1,2.61-4.29,1.13-5.21-0.84
			c0.69-6.34,4.03-11.92,5.82-17.96c-0.66,0.12-8.85,7.65-12.1,11.11c-3.06,2.85-5.74,6.64-10.05,7.58
			c-1.79-0.91-4.42-2.19-3.82-4.65c0.71-7.25,5.69-13.14,7-20.24c-1.64,0.72-18.38,20.99-28.78,25.45
			c-5.21,2.12-10.83-2.11-11.49-7.38c0.22-3.31,0.8-6.58,0.79-9.91c-3.32-1.78-6.58-3.65-9.85-5.51
			c-6.36,9.47-12.26,19.73-21.89,26.31c-3.26-1.14-5.56-4.07-4.67-7.64c2.08-11.31,16.54-38.4,18.88-41.43
			c1.15,0.96,2.78,1.67,3.11,3.29c0.1,1.77-0.54,3.46-1.21,5.06c-4.81,9-10.85,17.68-13.12,27.77c0.68-0.03,2.03-0.11,2.71-0.15
			c4.89-6.68,9.87-13.42,13.06-21.11c1.29-2.97,2.2-6.23,4.47-8.65c1.71-0.66,3.19,0.85,4.67,1.46c-0.79,3.79-1.91,7.54-1.68,11.46
			c2.73,1.51,5.97,4.41,9.21,2.73C385.09,58.41,392.82,48.06,403.28,40.84z M394.64,56.09c-2.29,2.85-5.07,5.64-5.63,9.42
			c0.62-0.17,1.85-0.51,2.47-0.68c6.45-3.6,11.99-9.19,14.66-16.16c-0.29-0.28-0.86-0.84-1.15-1.11
			C401.12,49.82,397.49,52.6,394.64,56.09z"/>
	</g>
	<g>
		<path fill="#4A4947" d="M561.73,42.22c1.67-0.94,3.8-0.54,4.61,1.33c0.55,5.13-2.13,9.77-3.95,14.37
			c-2.14,5.42-5.42,10.36-9.37,14.63c-3.91,4.09-8.67,7.23-12.71,11.18c4.81,4.77,12.3,4.09,18.3,2.4
			c4.98-1.11,9.66-3.17,14.51-4.68c-2.24,6.07-8.41,9.57-14.54,10.52c-4.49,0.57-9.15,1.9-13.61,0.48
			c-3.83-0.83-6.76-3.55-10.09-5.39c-7.74,2.23-14.71,7.22-22.9,7.95c-3.23,0.38-6.38-3.3-5.26-6.46c1.92-8.83,5-17.4,8.69-25.64
			c0.7-1.43,0.94-3.01,0.82-4.59c-3.53,1.14-4.77,4.97-6.64,7.8c-6.11,10.58-12.46,22.5-24.25,27.6c-3.09,1.64-6.6-0.93-7.52-3.91
			c-0.89-1.56-0.59-4.29-2.84-4.53c-3.54,2.54-6.34,6.1-10.38,7.94c-2.82,1.85-5.62-2.11-5.42-4.75c0.7-7.2,4.54-13.51,8.11-19.63
			c3.79-7.29,8.53-14.05,11.72-21.66c0.8-0.08,2.4-0.23,3.19-0.31c2.29,3.09,0.19,6.62-1.36,9.51c-4.2,7.18-8.48,14.33-12.28,21.73
			c-0.88,1.53-1.1,3.29-1.06,5.03c1.8-0.8,3.41-1.97,4.76-3.41c5.58-5.5,10.88-11.46,14.53-18.45c2.24-4.26,5.47-7.86,8.42-11.62
			c1.1-1.61,3.31-0.76,4.92-1.04c1.13,3.67-1.25,6.89-3.52,9.5c-5.65,6.63-8.88,14.84-12.23,22.77c-1,1.92-0.82,4.12-0.86,6.21
			c3.77-1.16,6.93-3.66,9.57-6.52c4.41-5.05,8.2-10.61,11.5-16.43c2.46-4.51,4.66-9.18,7.61-13.39c4.13,0.55,8.47,2.23,10.44,6.19
			c1.62,2.3-0.02,5.01-0.9,7.25c-3.22,7.73-7.17,15.21-9.01,23.43c3.37,1.46,17.17-4.98,20.49-7.27c0.1-8.82,5.17-16.45,10.89-22.75
			C549.47,51.95,554.91,46.14,561.73,42.22z M547.35,62.9c-3.14,3.56-6.68,7.48-6.3,12.59c6.5-3.67,11.23-9.73,14.75-16.19
			c0.76-1.53,0.9-3.25,1.14-4.92C553.01,56.27,550.35,59.87,547.35,62.9z"/>
	</g>
	<polygon fill="#4A4947" points="13.78,107.31 598.4,107.46 593.96,109.96 13.29,109.76 	"/>
	<polygon fill="#4A4947" points="624.07,107.31 785.78,106.875 785.78,109.83 621.31,109.96 	"/>
	<polygon fill="#4A4947" points="784.9,313.07 784.9,316.78 15.25,316.37 15.27,313.94 	"/>
</g>
<g>
	<path fill="#046BE7" d="M394.64,136.89c6.83,9.12,72.9,94.68,74.98,95.92c1.86,0.78,3.95,0.5,5.92,0.63
		c0.16-11.62,0.11-23.24-0.15-34.86c-1.19-12.1-0.72-24.49-3.99-36.3c-1.6-4.96-5.61-8.53-9.47-11.78
		c-0.44-0.28-9.48-3.66-13.43-4.6c-1.03-2.12-1.35-4.44-0.99-6.76c7.16-0.39,57.64-0.45,63.22-0.02c-0.11,2.25-0.19,4.51-0.24,6.78
		c-2.58,0.83-10.196,2.145-13.5,5.56c-2.514,2.599-8.823,9.874-10.19,17.83c-2.525,14.698-2.6,101.82-3.7,116.15
		c-8.7,1.42-17.55,0.45-26.31,0.86c-3.1-1.59-86.07-108.56-89.22-110.33c-2.93-0.56-4.36,3.2-4.32,5.57
		c0.21,9.64,0.25,74.96,8.54,86.17c0.29,0.45,5.88,5.28,8.56,6.53c4.43,2.48,9.73,3.18,13.69,6.53c-0.6,2.2-1.41,4.34-2.54,6.32
		c-4.81-0.86-49.3-0.3-66.67-0.46c-0.05-2.09-0.1-4.17-0.15-6.26c5.91-2.52,12.35-3.86,17.78-7.44c2.35-1.7,6.8-9.04,6.8-9.04
		c4.15-9.62,2.56-86.8,2.54-94.4c-0.39-4.57-1.02-9.36-3.34-13.4c-5.73-6.71-11.16-6.97-18.76-10.32c0.02-2.05,2.75-7.73,4.28-7.7
		C340.32,137.57,390.41,136.68,394.64,136.89z"/>
	<path fill="#046BE7" d="M320.46,138.11c1.882,0.313,2.17,3.672,1.29,5.22c-1.631,2.871-6.01,2.72-8.87,4.36
		c-4.963,2.977-9.37,11.83-10.25,16.54c-0.77,3.35-1.23,6.78-1.23,10.22c-0.07,25.37,0.01,50.73,0.14,76.1
		c0.14,6.12,0.48,12.57,3.57,18.02c3.49,7.04,12.5,6.61,17.5,11.82c-0.03,2.17,0.22,5.95-2.97,5.69c-9.2-0.31-67.64,0.04-75.64,0.01
		c-3.03,0.41-4.13-3.08-3.34-5.47c2.03-2.03,13.8-7.86,15.36-10.01c4.41-5.61,4.14-13.07,4.49-19.82c0.6-8.72-0.37-83.98-0.39-87.27
		c0-8.27-5.64-11.61-5.99-12.01c-3.83-1.95-7.67-3.84-11.67-5.43c-2.96-1.21-4.617-7.879-1.26-7.79
		C249.625,138.515,314.013,137.037,320.46,138.11z"/>
	<path fill="#046BE7" d="M103.01,139.21c22.98,0.09,45.99,0.38,68.95-0.52c1.82,0.06,4.313-0.758,5.41,0.7
		c0.938,1.247,0.284,3.383-0.66,4.66c-1.797,2.428-14.62,7.38-16.53,10.54c-6.43,8.91-6.63,82.23-4.87,97.88
		c0.05,5.96,0.03,12.03,1.79,17.78c1.74,2.87,4.32,5.9,7.91,6.18c5.94,1,11.943,1.421,18,0.81c8.206-0.829,17.06-1.73,23.54-7.26
		c2.42-1.86,7.28-7.79,7.57-8.23c4.51-6.96,16.1-28.61,18.58-31.71c3.04-0.02,6.1,0.12,8.99,1.18c0,10.64-8.05,47.89-8.38,56.39
		c-0.06,0.41-0.17,1.24-0.22,1.66c-5.55,0.83-25.959-3.719-50.1-3.44c-22.009,0.254-81.62,0.93-89.42,1.06
		c-0.29-2.19-2.06-4.94,0.02-6.72c3.34-1.65,7.11-2.17,10.49-3.72c2.42-1.5,4.24-3.77,5.92-6.02c4.45-6.41,3.34-14.59,3.64-21.94
		c0.17-7,0.83-13.99,0.25-20.99c-0.21-17.33-0.8-60.23-1.58-64.27c-0.73-5.53-5.07-9.52-9.39-12.56
		c-3.63-1.64-10.336-5.42-11.77-7.22c-0.314-0.395-0.473-1.445-0.48-1.95C90.635,138.875,98.85,139.36,103.01,139.21z"/>
	<path fill="#046BE7" d="M513.32,138.83c9.23-0.18,74.824-1.682,77.82-0.71c1.826,0.592,3.12,3.12,2.37,5.28
		c-0.82,1.41-2.05,2.51-3.23,3.59c-0.65,0.11-1.94,0.33-2.59,0.44c-1.67,0.11-3.4,0.54-4.52,1.87c-3.15,2.77-6.8,5.53-7.75,9.88
		c-3.03,12.9-1.9,26.25-2.15,39.38c-0.23,2.3,0.396,7.3,3.5,7.3c7.1-0.69,31.46-21.41,35-25.58c2.96-3.37,20.313-16.113,18.85-26.79
		c-0.245-1.79-2.25-4.33-3.79-6.15c-1.31-1.67-3.56-1.92-5.52-1.7c-0.64,0.02-1.92,0.07-2.56,0.1l-0.03-1.05
		c-0.03-1.83-0.02-3.66,0-5.48c3.74-0.33,45.5-0.68,62.6,0.04l1.03,0.09c-0.07,2.19,0.69,5.55-1.85,6.62
		c-10.48,2.9-21.15,6.33-29.92,13c-5.77,3.89-28.21,21.27-32.52,25.69c-0.78,1.36-1.71,3.04-0.95,4.62
		c1.49,4.39,58.765,78.605,71.97,84.27c4.22,1.84,8.63,3.17,12.92,4.84c2.55,0.85,1.22,4.05,1.28,6.03
		c-5.16,1.91-36.97,1.19-47.31,1.44c-7.03,0.67-16.17,1.91-20.9-4.56c-0.3-0.43-45.236-67.373-53.45-68.21
		c-3.31-0.45-7.05,1.64-7.8,5.04c-0.75,2.99-1.65,39.29,1.76,47.67c0.33,0.99,0.71,1.97,1.15,2.93c1.06,2.82,3.26,5,6.16,5.92
		c3.84,1.6,8,2.28,11.84,3.93c0,2.26-0.01,4.51-0.06,6.77c-7.45,1.23-77.8,1.39-82.79-0.06c-0.44-2.27-0.9-5.06,1.08-6.77
		c3.31-1.56,6.979-2.311,10.29-3.87c0.475-0.224,4.958-2.724,6.7-7.08c3.95-8.08,3.4-17.31,4.09-26.04
		c0.11-16.76,0.16-33.53,0.13-50.3c0.1-2.71-0.07-10.97-0.35-12.35c-0.89-7.54,0.33-15.71-3.63-22.6
		c-4.03-5.6-10.56-8.27-16.96-10.1C512.84,143.73,512.9,141.26,513.32,138.83z"/>
</g>
</svg>
